<svg width="523" height="423" viewBox="0 0 523 423" fill="none" xmlns="http://www.w3.org/2000/svg">
<g filter="url(#filter0_d_143_1130)">
<rect x="6.64258" y="4.21472" width="510" height="410" rx="20" fill="white"/>
</g>
<mask id="mask0_143_1130" style="mask-type:alpha" maskUnits="userSpaceOnUse" x="53" y="148" width="417" height="214">
<rect x="53.6426" y="148.296" width="416" height="213.268" fill="#D9D9D9"/>
</mask>
<g mask="url(#mask0_143_1130)">
<mask id="path-3-inside-1_143_1130" fill="white">
<path d="M61.6993 360.382C57.2795 360.484 53.5993 356.981 53.6685 352.56C54.1437 322.218 61.1455 292.316 74.2184 264.976C88.4399 235.233 109.434 209.384 135.452 189.583C161.469 169.782 191.756 156.602 223.788 151.142C253.218 146.126 283.339 147.76 312.026 155.888C316.245 157.084 318.538 161.563 317.222 165.745L312.719 180.06C311.383 184.307 306.842 186.627 302.549 185.448C278.547 178.852 253.401 177.587 228.82 181.777C201.581 186.419 175.826 197.627 153.702 214.465C131.577 231.304 113.725 253.285 101.631 278.577C90.6843 301.47 84.7435 326.476 84.1784 351.872C84.0802 356.286 80.6016 359.947 76.1871 360.048L61.6993 360.382Z"/>
</mask>
<path d="M61.6993 360.382C57.2795 360.484 53.5993 356.981 53.6685 352.56C54.1437 322.218 61.1455 292.316 74.2184 264.976C88.4399 235.233 109.434 209.384 135.452 189.583C161.469 169.782 191.756 156.602 223.788 151.142C253.218 146.126 283.339 147.76 312.026 155.888C316.245 157.084 318.538 161.563 317.222 165.745L312.719 180.06C311.383 184.307 306.842 186.627 302.549 185.448C278.547 178.852 253.401 177.587 228.82 181.777C201.581 186.419 175.826 197.627 153.702 214.465C131.577 231.304 113.725 253.285 101.631 278.577C90.6843 301.47 84.7435 326.476 84.1784 351.872C84.0802 356.286 80.6016 359.947 76.1871 360.048L61.6993 360.382Z" stroke="#4A3AFF" stroke-width="60" stroke-linecap="round" stroke-linejoin="round" mask="url(#path-3-inside-1_143_1130)"/>
<mask id="path-4-inside-2_143_1130" fill="white">
<path d="M316.586 164.173C317.725 159.874 322.158 157.314 326.395 158.664C366.513 171.447 401.839 196.583 427.447 230.707C453.098 264.887 467.65 306.285 469.196 349.149C469.355 353.565 465.751 357.142 461.332 357.134L446.841 357.107C442.423 357.099 438.866 353.509 438.678 349.095C437.138 313.071 424.798 278.318 403.223 249.57C381.662 220.839 351.999 199.6 318.301 188.632C314.127 187.274 311.615 182.936 312.739 178.693L316.586 164.173Z"/>
</mask>
<path d="M316.586 164.173C317.725 159.874 322.158 157.314 326.395 158.664C366.513 171.447 401.839 196.583 427.447 230.707C453.098 264.887 467.65 306.285 469.196 349.149C469.355 353.565 465.751 357.142 461.332 357.134L446.841 357.107C442.423 357.099 438.866 353.509 438.678 349.095C437.138 313.071 424.798 278.318 403.223 249.57C381.662 220.839 351.999 199.6 318.301 188.632C314.127 187.274 311.615 182.936 312.739 178.693L316.586 164.173Z" stroke="#E5EAFC" stroke-width="60" stroke-linecap="round" stroke-linejoin="round" mask="url(#path-4-inside-2_143_1130)"/>
</g>
<g filter="url(#filter1_d_143_1130)">
<circle cx="312.04" cy="172.587" r="26.3723" fill="#4A3AFF"/>
<circle cx="312.04" cy="172.587" r="23.8723" stroke="white" stroke-width="5"/>
</g>
<path d="M187.209 315.564L210.725 269.03V268.642H183.331V258.837H223.134V268.781L199.59 315.564H187.209ZM231.354 315.564V306.922L251.546 288.225C253.264 286.563 254.704 285.068 255.867 283.738C257.049 282.408 257.945 281.107 258.554 279.832C259.164 278.54 259.468 277.146 259.468 275.65C259.468 273.988 259.09 272.557 258.333 271.357C257.575 270.138 256.541 269.205 255.23 268.559C253.919 267.894 252.433 267.562 250.771 267.562C249.035 267.562 247.521 267.913 246.228 268.614C244.936 269.316 243.938 270.322 243.237 271.634C242.535 272.945 242.184 274.505 242.184 276.315H230.8C230.8 272.603 231.64 269.381 233.32 266.648C235.001 263.915 237.355 261.8 240.384 260.305C243.412 258.809 246.902 258.061 250.854 258.061C254.916 258.061 258.453 258.781 261.463 260.222C264.491 261.644 266.845 263.619 268.526 266.149C270.206 268.679 271.046 271.578 271.046 274.847C271.046 276.989 270.622 279.103 269.772 281.19C268.941 283.276 267.455 285.594 265.313 288.142C263.171 290.672 260.151 293.71 256.255 297.255L247.973 305.371V305.759H271.794V315.564H231.354ZM311.535 304.928V301.936C311.535 299.665 312.015 297.578 312.975 295.676C313.954 293.756 315.367 292.223 317.213 291.078C319.078 289.915 321.35 289.333 324.027 289.333C326.742 289.333 329.022 289.906 330.869 291.05C332.734 292.195 334.137 293.728 335.079 295.648C336.039 297.55 336.52 299.646 336.52 301.936V304.928C336.52 307.199 336.039 309.295 335.079 311.215C334.119 313.117 332.706 314.641 330.841 315.786C328.976 316.949 326.705 317.531 324.027 317.531C321.313 317.531 319.032 316.949 317.186 315.786C315.339 314.641 313.936 313.117 312.975 311.215C312.015 309.295 311.535 307.199 311.535 304.928ZM319.596 301.936V304.928C319.596 306.239 319.909 307.476 320.537 308.639C321.184 309.803 322.347 310.384 324.027 310.384C325.708 310.384 326.853 309.812 327.462 308.667C328.09 307.522 328.404 306.276 328.404 304.928V301.936C328.404 300.588 328.108 299.332 327.517 298.169C326.926 297.006 325.763 296.424 324.027 296.424C322.365 296.424 321.211 297.006 320.565 298.169C319.919 299.332 319.596 300.588 319.596 301.936ZM282.424 272.465V269.473C282.424 267.183 282.913 265.087 283.892 263.185C284.87 261.265 286.283 259.732 288.13 258.587C289.995 257.443 292.248 256.87 294.888 256.87C297.621 256.87 299.911 257.443 301.757 258.587C303.604 259.732 305.007 261.265 305.968 263.185C306.928 265.087 307.408 267.183 307.408 269.473V272.465C307.408 274.754 306.919 276.85 305.94 278.752C304.98 280.654 303.567 282.178 301.702 283.322C299.855 284.449 297.584 285.012 294.888 285.012C292.192 285.012 289.912 284.44 288.047 283.295C286.2 282.131 284.797 280.608 283.836 278.724C282.895 276.822 282.424 274.736 282.424 272.465ZM290.539 269.473V272.465C290.539 273.813 290.853 275.059 291.481 276.204C292.127 277.349 293.263 277.921 294.888 277.921C296.587 277.921 297.741 277.349 298.35 276.204C298.978 275.059 299.292 273.813 299.292 272.465V269.473C299.292 268.125 298.997 266.869 298.406 265.706C297.815 264.543 296.642 263.961 294.888 263.961C293.245 263.961 292.109 264.552 291.481 265.734C290.853 266.916 290.539 268.162 290.539 269.473ZM286.08 315.564L325.08 258.837H332.337L293.337 315.564H286.08Z" fill="#1E1B39"/>
<path d="M195.289 343.746C195.213 343.098 194.901 342.595 194.356 342.237C193.811 341.879 193.142 341.7 192.349 341.7C191.769 341.7 191.262 341.794 190.828 341.982C190.397 342.169 190.061 342.427 189.818 342.755C189.579 343.083 189.46 343.456 189.46 343.874C189.46 344.223 189.543 344.523 189.709 344.775C189.879 345.022 190.097 345.229 190.361 345.395C190.625 345.557 190.902 345.691 191.192 345.798C191.482 345.9 191.748 345.983 191.991 346.047L193.32 346.405C193.661 346.494 194.041 346.618 194.458 346.776C194.88 346.933 195.283 347.148 195.666 347.421C196.054 347.69 196.374 348.035 196.625 348.457C196.877 348.879 197.002 349.396 197.002 350.01C197.002 350.717 196.817 351.357 196.446 351.928C196.08 352.499 195.543 352.952 194.835 353.289C194.132 353.626 193.278 353.794 192.272 353.794C191.335 353.794 190.523 353.643 189.837 353.34C189.155 353.038 188.618 352.616 188.226 352.075C187.838 351.533 187.619 350.905 187.568 350.189H189.204C189.247 350.683 189.413 351.092 189.703 351.416C189.997 351.736 190.367 351.974 190.815 352.132C191.267 352.286 191.752 352.362 192.272 352.362C192.877 352.362 193.421 352.264 193.902 352.068C194.384 351.868 194.765 351.591 195.046 351.237C195.328 350.879 195.468 350.462 195.468 349.984C195.468 349.55 195.347 349.196 195.104 348.923C194.861 348.651 194.541 348.429 194.145 348.259C193.749 348.088 193.32 347.939 192.86 347.811L191.249 347.351C190.227 347.057 189.417 346.637 188.82 346.092C188.224 345.546 187.926 344.832 187.926 343.95C187.926 343.217 188.124 342.578 188.52 342.033C188.921 341.483 189.458 341.057 190.131 340.754C190.808 340.447 191.565 340.294 192.4 340.294C193.244 340.294 193.994 340.445 194.65 340.748C195.306 341.046 195.826 341.455 196.21 341.975C196.597 342.495 196.802 343.085 196.823 343.746H195.289ZM202.293 353.794C201.671 353.794 201.107 353.677 200.599 353.443C200.092 353.204 199.69 352.861 199.391 352.413C199.093 351.962 198.944 351.416 198.944 350.777C198.944 350.215 199.055 349.759 199.276 349.409C199.498 349.055 199.794 348.778 200.165 348.578C200.536 348.378 200.945 348.229 201.392 348.131C201.844 348.028 202.298 347.947 202.754 347.888C203.35 347.811 203.834 347.754 204.205 347.715C204.58 347.673 204.852 347.602 205.023 347.504C205.197 347.406 205.285 347.236 205.285 346.993V346.942C205.285 346.311 205.112 345.821 204.767 345.472C204.426 345.122 203.908 344.947 203.214 344.947C202.494 344.947 201.929 345.105 201.52 345.42C201.111 345.736 200.823 346.072 200.657 346.43L199.225 345.919C199.481 345.322 199.822 344.858 200.248 344.526C200.678 344.189 201.147 343.955 201.654 343.822C202.165 343.686 202.668 343.618 203.163 343.618C203.478 343.618 203.84 343.656 204.249 343.733C204.663 343.805 205.061 343.957 205.445 344.187C205.832 344.417 206.154 344.764 206.41 345.229C206.665 345.693 206.793 346.315 206.793 347.095V353.564H205.285V352.234H205.208C205.106 352.447 204.935 352.675 204.697 352.918C204.458 353.161 204.141 353.368 203.744 353.538C203.348 353.709 202.864 353.794 202.293 353.794ZM202.523 352.439C203.12 352.439 203.623 352.322 204.032 352.087C204.445 351.853 204.756 351.55 204.965 351.18C205.178 350.809 205.285 350.419 205.285 350.01V348.629C205.221 348.706 205.08 348.776 204.863 348.84C204.65 348.9 204.403 348.953 204.121 349C203.844 349.043 203.574 349.081 203.31 349.115C203.05 349.145 202.839 349.17 202.677 349.192C202.285 349.243 201.918 349.326 201.577 349.441C201.241 349.552 200.968 349.72 200.759 349.946C200.555 350.168 200.452 350.47 200.452 350.854C200.452 351.378 200.646 351.774 201.034 352.043C201.426 352.307 201.923 352.439 202.523 352.439ZM211.055 340.473V353.564H209.547V340.473H211.055ZM217.935 353.769C216.989 353.769 216.173 353.56 215.487 353.142C214.805 352.72 214.278 352.132 213.908 351.378C213.541 350.619 213.358 349.737 213.358 348.732C213.358 347.726 213.541 346.84 213.908 346.072C214.278 345.301 214.794 344.7 215.455 344.27C216.119 343.835 216.895 343.618 217.781 343.618C218.293 343.618 218.798 343.703 219.296 343.874C219.795 344.044 220.249 344.321 220.658 344.705C221.067 345.084 221.393 345.587 221.636 346.213C221.879 346.84 222 347.611 222 348.527V349.166H214.432V347.862H220.466C220.466 347.308 220.355 346.814 220.134 346.379C219.916 345.945 219.605 345.602 219.2 345.35C218.8 345.099 218.327 344.973 217.781 344.973C217.18 344.973 216.661 345.122 216.222 345.42C215.787 345.715 215.452 346.098 215.218 346.571C214.984 347.044 214.866 347.551 214.866 348.092V348.962C214.866 349.703 214.994 350.332 215.25 350.847C215.51 351.359 215.87 351.749 216.33 352.017C216.79 352.281 217.325 352.413 217.935 352.413C218.331 352.413 218.689 352.358 219.009 352.247C219.332 352.132 219.612 351.962 219.846 351.736C220.08 351.506 220.261 351.22 220.389 350.879L221.847 351.288C221.693 351.783 221.435 352.217 221.073 352.592C220.711 352.963 220.263 353.253 219.731 353.462C219.198 353.666 218.599 353.769 217.935 353.769ZM231.249 345.945L229.894 346.328C229.809 346.102 229.683 345.883 229.517 345.67C229.355 345.452 229.134 345.273 228.852 345.133C228.571 344.992 228.211 344.922 227.772 344.922C227.171 344.922 226.67 345.06 226.27 345.337C225.874 345.61 225.675 345.957 225.675 346.379C225.675 346.754 225.812 347.05 226.085 347.268C226.357 347.485 226.783 347.666 227.363 347.811L228.82 348.169C229.698 348.382 230.352 348.708 230.783 349.147C231.213 349.582 231.428 350.142 231.428 350.828C231.428 351.391 231.266 351.894 230.942 352.337C230.623 352.78 230.175 353.129 229.6 353.385C229.025 353.641 228.356 353.769 227.593 353.769C226.592 353.769 225.763 353.551 225.107 353.117C224.45 352.682 224.035 352.047 223.86 351.212L225.292 350.854C225.428 351.382 225.686 351.778 226.065 352.043C226.449 352.307 226.95 352.439 227.567 352.439C228.271 352.439 228.829 352.29 229.242 351.992C229.66 351.689 229.869 351.327 229.869 350.905C229.869 350.564 229.749 350.278 229.511 350.048C229.272 349.814 228.906 349.639 228.411 349.524L226.775 349.141C225.876 348.928 225.215 348.597 224.793 348.15C224.376 347.698 224.167 347.134 224.167 346.456C224.167 345.902 224.322 345.412 224.634 344.986C224.949 344.56 225.377 344.225 225.918 343.982C226.464 343.739 227.082 343.618 227.772 343.618C228.744 343.618 229.506 343.831 230.06 344.257C230.619 344.683 231.015 345.246 231.249 345.945ZM234.798 353.666C234.483 353.666 234.213 353.553 233.987 353.327C233.761 353.102 233.648 352.831 233.648 352.516C233.648 352.2 233.761 351.93 233.987 351.704C234.213 351.478 234.483 351.365 234.798 351.365C235.114 351.365 235.384 351.478 235.61 351.704C235.836 351.93 235.949 352.2 235.949 352.516C235.949 352.724 235.896 352.916 235.789 353.091C235.687 353.266 235.548 353.406 235.374 353.513C235.203 353.615 235.012 353.666 234.798 353.666ZM234.798 346.379C234.483 346.379 234.213 346.266 233.987 346.041C233.761 345.815 233.648 345.544 233.648 345.229C233.648 344.913 233.761 344.643 233.987 344.417C234.213 344.191 234.483 344.078 234.798 344.078C235.114 344.078 235.384 344.191 235.61 344.417C235.836 344.643 235.949 344.913 235.949 345.229C235.949 345.438 235.896 345.629 235.789 345.804C235.687 345.979 235.548 346.119 235.374 346.226C235.203 346.328 235.012 346.379 234.798 346.379ZM249.01 355.564V335.564H250.291V355.564H249.01ZM252.408 342.166C252.346 341.535 252.077 341.046 251.604 340.697C251.13 340.348 250.486 340.173 249.674 340.173C249.122 340.173 248.656 340.251 248.275 340.408C247.895 340.559 247.604 340.77 247.4 341.041C247.202 341.311 247.104 341.619 247.104 341.962C247.093 342.249 247.153 342.499 247.283 342.712C247.419 342.926 247.604 343.111 247.838 343.267C248.072 343.418 248.343 343.551 248.65 343.666C248.958 343.775 249.286 343.869 249.635 343.947L251.072 344.291C251.77 344.447 252.411 344.655 252.994 344.916C253.577 345.176 254.083 345.496 254.51 345.876C254.937 346.257 255.268 346.705 255.502 347.22C255.742 347.736 255.864 348.327 255.869 348.994C255.864 349.973 255.614 350.822 255.119 351.541C254.63 352.254 253.921 352.809 252.994 353.205C252.072 353.595 250.96 353.791 249.658 353.791C248.367 353.791 247.242 353.593 246.283 353.197C245.33 352.801 244.585 352.215 244.049 351.439C243.518 350.658 243.239 349.692 243.213 348.541H246.486C246.523 349.077 246.676 349.525 246.947 349.884C247.223 350.238 247.59 350.507 248.049 350.689C248.512 350.866 249.036 350.955 249.619 350.955C250.192 350.955 250.689 350.871 251.111 350.705C251.538 350.538 251.869 350.306 252.104 350.009C252.338 349.712 252.455 349.371 252.455 348.986C252.455 348.626 252.348 348.324 252.135 348.08C251.926 347.835 251.619 347.626 251.213 347.455C250.812 347.283 250.32 347.126 249.736 346.986L247.994 346.548C246.645 346.22 245.58 345.707 244.799 345.009C244.018 344.311 243.63 343.371 243.635 342.189C243.63 341.22 243.887 340.374 244.408 339.65C244.934 338.926 245.656 338.361 246.572 337.955C247.489 337.548 248.531 337.345 249.697 337.345C250.885 337.345 251.921 337.548 252.807 337.955C253.697 338.361 254.39 338.926 254.885 339.65C255.38 340.374 255.635 341.212 255.65 342.166H252.408ZM258.051 353.564V351.126L263.746 345.853C264.23 345.384 264.637 344.962 264.965 344.587C265.298 344.212 265.551 343.845 265.723 343.486C265.895 343.121 265.98 342.728 265.98 342.306C265.98 341.837 265.874 341.434 265.66 341.095C265.447 340.751 265.155 340.488 264.785 340.306C264.415 340.119 263.996 340.025 263.527 340.025C263.038 340.025 262.611 340.124 262.246 340.322C261.882 340.52 261.6 340.804 261.402 341.173C261.204 341.543 261.105 341.983 261.105 342.494H257.895C257.895 341.447 258.132 340.538 258.605 339.767C259.079 338.996 259.743 338.4 260.598 337.978C261.452 337.556 262.436 337.345 263.551 337.345C264.697 337.345 265.694 337.548 266.543 337.955C267.397 338.356 268.061 338.913 268.535 339.626C269.009 340.34 269.246 341.158 269.246 342.08C269.246 342.684 269.126 343.28 268.887 343.869C268.652 344.457 268.233 345.111 267.629 345.83C267.025 346.543 266.173 347.4 265.074 348.4L262.738 350.689V350.798H269.457V353.564H258.051ZM271.322 350.751V348.087L278.002 337.564H280.299V341.251H278.939L274.729 347.916V348.041H284.221V350.751H271.322ZM279.002 353.564V349.939L279.064 348.759V337.564H282.236V353.564H279.002ZM289.822 351.376L289.736 352.236C289.669 352.923 289.538 353.608 289.346 354.291C289.158 354.978 288.96 355.6 288.752 356.158C288.549 356.715 288.385 357.153 288.26 357.47H286.104C286.182 357.163 286.288 356.733 286.424 356.181C286.559 355.634 286.687 355.02 286.807 354.337C286.926 353.655 287.002 352.96 287.033 352.251L287.072 351.376H289.822ZM292.592 350.751V348.087L299.271 337.564H301.568V341.251H300.209L295.998 347.916V348.041H305.49V350.751H292.592ZM300.271 353.564V349.939L300.334 348.759V337.564H303.506V353.564H300.271ZM314.018 353.916C312.674 353.91 311.518 353.58 310.549 352.923C309.585 352.267 308.843 351.317 308.322 350.072C307.807 348.827 307.551 347.33 307.557 345.58C307.557 343.835 307.814 342.348 308.33 341.119C308.851 339.889 309.593 338.955 310.557 338.314C311.525 337.668 312.679 337.345 314.018 337.345C315.356 337.345 316.507 337.668 317.471 338.314C318.439 338.96 319.184 339.897 319.705 341.126C320.226 342.35 320.484 343.835 320.479 345.58C320.479 347.335 320.218 348.835 319.697 350.08C319.182 351.324 318.442 352.275 317.479 352.931C316.515 353.587 315.361 353.916 314.018 353.916ZM314.018 351.111C314.934 351.111 315.666 350.65 316.213 349.728C316.76 348.806 317.031 347.423 317.025 345.58C317.025 344.366 316.9 343.356 316.65 342.548C316.406 341.741 316.057 341.134 315.604 340.728C315.156 340.322 314.627 340.119 314.018 340.119C313.106 340.119 312.377 340.574 311.83 341.486C311.283 342.397 311.007 343.762 311.002 345.58C311.002 346.809 311.124 347.835 311.369 348.658C311.619 349.475 311.971 350.09 312.424 350.501C312.877 350.908 313.408 351.111 314.018 351.111ZM329.164 353.916C327.82 353.91 326.664 353.58 325.695 352.923C324.732 352.267 323.99 351.317 323.469 350.072C322.953 348.827 322.698 347.33 322.703 345.58C322.703 343.835 322.961 342.348 323.477 341.119C323.997 339.889 324.74 338.955 325.703 338.314C326.672 337.668 327.826 337.345 329.164 337.345C330.503 337.345 331.654 337.668 332.617 338.314C333.586 338.96 334.331 339.897 334.852 341.126C335.372 342.35 335.63 343.835 335.625 345.58C335.625 347.335 335.365 348.835 334.844 350.08C334.328 351.324 333.589 352.275 332.625 352.931C331.661 353.587 330.508 353.916 329.164 353.916ZM329.164 351.111C330.081 351.111 330.813 350.65 331.359 349.728C331.906 348.806 332.177 347.423 332.172 345.58C332.172 344.366 332.047 343.356 331.797 342.548C331.552 341.741 331.203 341.134 330.75 340.728C330.302 340.322 329.773 340.119 329.164 340.119C328.253 340.119 327.523 340.574 326.977 341.486C326.43 342.397 326.154 343.762 326.148 345.58C326.148 346.809 326.271 347.835 326.516 348.658C326.766 349.475 327.117 350.09 327.57 350.501C328.023 350.908 328.555 351.111 329.164 351.111Z" fill="#1E1B39"/>
<line x1="39.8672" y1="109.715" x2="483.417" y2="109.715" stroke="#E5E5EF"/>
<path d="M414.822 84.2147V64.2147H416.104V84.2147H414.822ZM418.221 70.8163C418.158 70.1861 417.89 69.6965 417.416 69.3475C416.942 68.9986 416.299 68.8241 415.486 68.8241C414.934 68.8241 414.468 68.9022 414.088 69.0585C413.708 69.2095 413.416 69.4205 413.213 69.6913C413.015 69.9621 412.916 70.2694 412.916 70.6132C412.906 70.8996 412.965 71.1496 413.096 71.3632C413.231 71.5767 413.416 71.7616 413.65 71.9178C413.885 72.0689 414.156 72.2017 414.463 72.3163C414.77 72.4257 415.098 72.5194 415.447 72.5975L416.885 72.9413C417.583 73.0975 418.223 73.3059 418.807 73.5663C419.39 73.8267 419.895 74.147 420.322 74.5272C420.749 74.9074 421.08 75.3553 421.314 75.871C421.554 76.3866 421.676 76.9777 421.682 77.6444C421.676 78.6236 421.426 79.4725 420.932 80.1913C420.442 80.9048 419.734 81.4595 418.807 81.8553C417.885 82.246 416.773 82.4413 415.471 82.4413C414.179 82.4413 413.054 82.2434 412.096 81.8475C411.143 81.4517 410.398 80.8658 409.861 80.0897C409.33 79.3085 409.051 78.3423 409.025 77.1913H412.299C412.335 77.7277 412.489 78.1757 412.76 78.535C413.036 78.8892 413.403 79.1574 413.861 79.3397C414.325 79.5168 414.848 79.6053 415.432 79.6053C416.005 79.6053 416.502 79.522 416.924 79.3553C417.351 79.1887 417.682 78.9569 417.916 78.66C418.15 78.3632 418.268 78.022 418.268 77.6366C418.268 77.2772 418.161 76.9751 417.947 76.7303C417.739 76.4856 417.432 76.2772 417.025 76.1053C416.624 75.9335 416.132 75.7772 415.549 75.6366L413.807 75.1991C412.458 74.871 411.393 74.358 410.611 73.66C409.83 72.9621 409.442 72.022 409.447 70.8397C409.442 69.871 409.7 69.0246 410.221 68.3007C410.747 67.5767 411.468 67.0116 412.385 66.6053C413.301 66.1991 414.343 65.996 415.51 65.996C416.697 65.996 417.734 66.1991 418.619 66.6053C419.51 67.0116 420.202 67.5767 420.697 68.3007C421.192 69.0246 421.447 69.8632 421.463 70.8163H418.221ZM424.496 82.2147L431.129 69.0897V68.9803H423.402V66.2147H434.629V69.0194L427.988 82.2147H424.496ZM437.846 80.0272L437.76 80.8866C437.692 81.5741 437.562 82.259 437.369 82.9413C437.182 83.6288 436.984 84.2512 436.775 84.8085C436.572 85.3658 436.408 85.8033 436.283 86.121H434.127C434.205 85.8137 434.312 85.384 434.447 84.8319C434.583 84.285 434.71 83.6705 434.83 82.9882C434.95 82.3059 435.025 81.6106 435.057 80.9022L435.096 80.0272H437.846ZM446.354 82.4335C445.531 82.4283 444.736 82.2902 443.971 82.0194C443.21 81.7486 442.528 81.3085 441.924 80.6991C441.32 80.0897 440.84 79.2824 440.486 78.2772C440.137 77.272 439.963 76.0376 439.963 74.5741C439.968 73.2303 440.122 72.0298 440.424 70.9725C440.731 69.91 441.169 69.009 441.736 68.2694C442.309 67.5298 442.994 66.9673 443.791 66.5819C444.588 66.1913 445.481 65.996 446.471 65.996C447.538 65.996 448.481 66.2043 449.299 66.621C450.117 67.0324 450.773 67.5923 451.268 68.3007C451.768 69.009 452.07 69.8033 452.174 70.6835H448.838C448.708 70.1262 448.434 69.6887 448.018 69.371C447.601 69.0533 447.085 68.8944 446.471 68.8944C445.429 68.8944 444.637 69.3475 444.096 70.2538C443.559 71.16 443.286 72.3918 443.275 73.9491H443.385C443.624 73.4751 443.947 73.0715 444.354 72.7382C444.765 72.3996 445.231 72.1418 445.752 71.9647C446.278 71.7824 446.833 71.6913 447.416 71.6913C448.364 71.6913 449.208 71.9152 449.947 72.3632C450.687 72.8059 451.27 73.4152 451.697 74.1913C452.124 74.9673 452.338 75.8553 452.338 76.8553C452.338 77.9387 452.085 78.9022 451.58 79.746C451.08 80.5897 450.38 81.2512 449.479 81.7303C448.583 82.2043 447.541 82.4387 446.354 82.4335ZM446.338 79.7772C446.859 79.7772 447.325 79.6522 447.736 79.4022C448.148 79.1522 448.471 78.8137 448.705 78.3866C448.939 77.9595 449.057 77.4803 449.057 76.9491C449.057 76.4178 448.939 75.9413 448.705 75.5194C448.476 75.0975 448.158 74.7616 447.752 74.5116C447.346 74.2616 446.882 74.1366 446.361 74.1366C445.971 74.1366 445.609 74.2095 445.275 74.3553C444.947 74.5012 444.658 74.7043 444.408 74.9647C444.163 75.2251 443.971 75.5272 443.83 75.871C443.689 76.2095 443.619 76.5715 443.619 76.9569C443.619 77.4725 443.736 77.9439 443.971 78.371C444.21 78.7981 444.533 79.1392 444.939 79.3944C445.351 79.6496 445.817 79.7772 446.338 79.7772ZM461.01 82.5663C459.666 82.5611 458.51 82.2303 457.541 81.5741C456.577 80.9178 455.835 79.9673 455.314 78.7225C454.799 77.4777 454.544 75.9803 454.549 74.2303C454.549 72.4856 454.807 70.9986 455.322 69.7694C455.843 68.5402 456.585 67.6053 457.549 66.9647C458.518 66.3189 459.671 65.996 461.01 65.996C462.348 65.996 463.499 66.3189 464.463 66.9647C465.432 67.6106 466.176 68.5481 466.697 69.7772C467.218 71.0012 467.476 72.4856 467.471 74.2303C467.471 75.9856 467.21 77.4856 466.689 78.7303C466.174 79.9751 465.434 80.9257 464.471 81.5819C463.507 82.2382 462.354 82.5663 461.01 82.5663ZM461.01 79.7616C461.926 79.7616 462.658 79.3007 463.205 78.3788C463.752 77.4569 464.023 76.0741 464.018 74.2303C464.018 73.0168 463.893 72.0064 463.643 71.1991C463.398 70.3918 463.049 69.785 462.596 69.3788C462.148 68.9725 461.619 68.7694 461.01 68.7694C460.098 68.7694 459.369 69.2251 458.822 70.1366C458.275 71.0481 457.999 72.4126 457.994 74.2303C457.994 75.4595 458.117 76.4856 458.361 77.3085C458.611 78.1262 458.963 78.7408 459.416 79.1522C459.869 79.5585 460.4 79.7616 461.01 79.7616ZM476.156 82.5663C474.813 82.5611 473.656 82.2303 472.688 81.5741C471.724 80.9178 470.982 79.9673 470.461 78.7225C469.945 77.4777 469.69 75.9803 469.695 74.2303C469.695 72.4856 469.953 70.9986 470.469 69.7694C470.99 68.5402 471.732 67.6053 472.695 66.9647C473.664 66.3189 474.818 65.996 476.156 65.996C477.495 65.996 478.646 66.3189 479.609 66.9647C480.578 67.6106 481.323 68.5481 481.844 69.7772C482.365 71.0012 482.622 72.4856 482.617 74.2303C482.617 75.9856 482.357 77.4856 481.836 78.7303C481.32 79.9751 480.581 80.9257 479.617 81.5819C478.654 82.2382 477.5 82.5663 476.156 82.5663ZM476.156 79.7616C477.073 79.7616 477.805 79.3007 478.352 78.3788C478.898 77.4569 479.169 76.0741 479.164 74.2303C479.164 73.0168 479.039 72.0064 478.789 71.1991C478.544 70.3918 478.195 69.785 477.742 69.3788C477.294 68.9725 476.766 68.7694 476.156 68.7694C475.245 68.7694 474.516 69.2251 473.969 70.1366C473.422 71.0481 473.146 72.4126 473.141 74.2303C473.141 75.4595 473.263 76.4856 473.508 77.3085C473.758 78.1262 474.109 78.7408 474.563 79.1522C475.016 79.5585 475.547 79.7616 476.156 79.7616Z" fill="#1E1B39"/>
<path d="M397.075 53.2147V40.1238H401.499C402.521 40.1238 403.361 40.2985 404.017 40.648C404.673 40.9931 405.159 41.4683 405.475 42.0734C405.79 42.6785 405.948 43.3667 405.948 44.138C405.948 44.9093 405.79 45.5933 405.475 46.1899C405.159 46.7865 404.676 47.2552 404.024 47.5961C403.372 47.9328 402.539 48.1011 401.524 48.1011H397.945V46.6693H401.473C402.172 46.6693 402.735 46.567 403.161 46.3624C403.591 46.1579 403.902 45.8681 404.094 45.4931C404.29 45.1139 404.388 44.6622 404.388 44.138C404.388 43.6139 404.29 43.1558 404.094 42.7637C403.898 42.3717 403.585 42.0691 403.154 41.8561C402.724 41.6387 402.155 41.5301 401.448 41.5301H398.661V53.2147H397.075ZM403.237 47.334L406.459 53.2147H404.618L401.448 47.334H403.237ZM412.396 53.4193C411.45 53.4193 410.634 53.2105 409.947 52.7928C409.266 52.371 408.739 51.7829 408.369 51.0286C408.002 50.2701 407.819 49.388 407.819 48.3823C407.819 47.3767 408.002 46.4903 408.369 45.7232C408.739 44.9519 409.255 44.3511 409.915 43.9207C410.58 43.486 411.356 43.2687 412.242 43.2687C412.754 43.2687 413.259 43.3539 413.757 43.5244C414.256 43.6948 414.71 43.9718 415.119 44.3553C415.528 44.7346 415.854 45.2374 416.097 45.8639C416.339 46.4903 416.461 47.2616 416.461 48.1778V48.817H408.893V47.513H414.927C414.927 46.959 414.816 46.4647 414.594 46.0301C414.377 45.5954 414.066 45.2524 413.661 45.0009C413.261 44.7495 412.788 44.6238 412.242 44.6238C411.641 44.6238 411.121 44.773 410.683 45.0713C410.248 45.3653 409.913 45.7488 409.679 46.2218C409.445 46.6948 409.327 47.2019 409.327 47.7431V48.6124C409.327 49.3539 409.455 49.9825 409.711 50.4981C409.971 51.0095 410.331 51.3994 410.791 51.6678C411.251 51.9321 411.786 52.0642 412.396 52.0642C412.792 52.0642 413.15 52.0088 413.469 51.898C413.793 51.7829 414.072 51.6124 414.307 51.3866C414.541 51.1565 414.722 50.871 414.85 50.5301L416.308 50.9392C416.154 51.4335 415.896 51.8681 415.534 52.2431C415.172 52.6139 414.724 52.9036 414.192 53.1124C413.659 53.317 413.06 53.4193 412.396 53.4193ZM418.756 53.2147V43.3965H420.213V44.9306H420.341C420.545 44.4065 420.876 43.9995 421.332 43.7097C421.788 43.4157 422.335 43.2687 422.974 43.2687C423.622 43.2687 424.161 43.4157 424.592 43.7097C425.026 43.9995 425.365 44.4065 425.608 44.9306H425.71C425.962 44.4235 426.339 44.0208 426.842 43.7225C427.344 43.42 427.947 43.2687 428.651 43.2687C429.528 43.2687 430.246 43.5436 430.805 44.0933C431.363 44.6387 431.642 45.4889 431.642 46.6437V53.2147H430.134V46.6437C430.134 45.9193 429.935 45.4015 429.539 45.0904C429.143 44.7794 428.676 44.6238 428.139 44.6238C427.449 44.6238 426.914 44.8326 426.535 45.2502C426.156 45.6636 425.966 46.1877 425.966 46.8227V53.2147H424.432V46.4903C424.432 45.9321 424.251 45.4825 423.888 45.1416C423.526 44.7964 423.06 44.6238 422.489 44.6238C422.097 44.6238 421.73 44.7282 421.389 44.937C421.053 45.1458 420.78 45.4356 420.571 45.8063C420.366 46.1728 420.264 46.5968 420.264 47.0784V53.2147H418.756ZM437.289 53.4448C436.667 53.4448 436.103 53.3276 435.596 53.0933C435.088 52.8546 434.686 52.5116 434.387 52.0642C434.089 51.6124 433.94 51.067 433.94 50.4278C433.94 49.8653 434.051 49.4093 434.272 49.0599C434.494 48.7062 434.79 48.4292 435.161 48.2289C435.532 48.0286 435.941 47.8795 436.388 47.7815C436.84 47.6792 437.294 47.5982 437.75 47.5386C438.346 47.4619 438.83 47.4044 439.201 47.366C439.576 47.3234 439.848 47.2531 440.019 47.1551C440.194 47.0571 440.281 46.8866 440.281 46.6437V46.5926C440.281 45.9619 440.108 45.4718 439.763 45.1224C439.422 44.773 438.904 44.5982 438.21 44.5982C437.49 44.5982 436.925 44.7559 436.516 45.0713C436.107 45.3866 435.819 45.7232 435.653 46.0812L434.221 45.5698C434.477 44.9732 434.818 44.5088 435.244 44.1764C435.674 43.8397 436.143 43.6053 436.65 43.4732C437.162 43.3369 437.664 43.2687 438.159 43.2687C438.474 43.2687 438.836 43.3071 439.245 43.3838C439.659 43.4562 440.057 43.6075 440.441 43.8376C440.828 44.0677 441.15 44.415 441.406 44.8795C441.662 45.344 441.789 45.9661 441.789 46.746V53.2147H440.281V51.8852H440.204C440.102 52.0982 439.931 52.3262 439.693 52.5691C439.454 52.812 439.137 53.0187 438.74 53.1892C438.344 53.3596 437.86 53.4448 437.289 53.4448ZM437.52 52.0897C438.116 52.0897 438.619 51.9725 439.028 51.7382C439.441 51.5038 439.752 51.2012 439.961 50.8305C440.174 50.4597 440.281 50.0698 440.281 49.6607V48.2801C440.217 48.3568 440.076 48.4271 439.859 48.491C439.646 48.5507 439.399 48.6039 439.118 48.6508C438.841 48.6934 438.57 48.7318 438.306 48.7659C438.046 48.7957 437.835 48.8213 437.673 48.8426C437.281 48.8937 436.914 48.9768 436.574 49.0919C436.237 49.2026 435.964 49.371 435.755 49.5968C435.551 49.8184 435.449 50.121 435.449 50.5045C435.449 51.0286 435.642 51.4249 436.03 51.6934C436.422 51.9576 436.919 52.0897 437.52 52.0897ZM444.543 53.2147V43.3965H446.051V53.2147H444.543ZM445.31 41.7602C445.016 41.7602 444.762 41.66 444.549 41.4597C444.34 41.2595 444.236 41.0187 444.236 40.7374C444.236 40.4562 444.34 40.2154 444.549 40.0151C444.762 39.8149 445.016 39.7147 445.31 39.7147C445.604 39.7147 445.855 39.8149 446.064 40.0151C446.277 40.2154 446.384 40.4562 446.384 40.7374C446.384 41.0187 446.277 41.2595 446.064 41.4597C445.855 41.66 445.604 41.7602 445.31 41.7602ZM450.323 47.3085V53.2147H448.814V43.3965H450.272V44.9306H450.4C450.63 44.4321 450.979 44.0315 451.448 43.7289C451.917 43.4221 452.522 43.2687 453.263 43.2687C453.928 43.2687 454.51 43.4051 455.008 43.6778C455.507 43.9463 455.895 44.3553 456.172 44.9051C456.449 45.4505 456.587 46.1409 456.587 46.9761V53.2147H455.078V47.0784C455.078 46.3071 454.878 45.7062 454.478 45.2758C454.077 44.8411 453.527 44.6238 452.828 44.6238C452.347 44.6238 451.917 44.7282 451.537 44.937C451.162 45.1458 450.866 45.4505 450.649 45.8511C450.431 46.2517 450.323 46.7374 450.323 47.3085ZM459.344 53.2147V43.3965H460.852V53.2147H459.344ZM460.111 41.7602C459.817 41.7602 459.563 41.66 459.35 41.4597C459.141 41.2595 459.037 41.0187 459.037 40.7374C459.037 40.4562 459.141 40.2154 459.35 40.0151C459.563 39.8149 459.817 39.7147 460.111 39.7147C460.405 39.7147 460.656 39.8149 460.865 40.0151C461.078 40.2154 461.184 40.4562 461.184 40.7374C461.184 41.0187 461.078 41.2595 460.865 41.4597C460.656 41.66 460.405 41.7602 460.111 41.7602ZM465.124 47.3085V53.2147H463.615V43.3965H465.072V44.9306H465.2C465.43 44.4321 465.78 44.0315 466.249 43.7289C466.717 43.4221 467.322 43.2687 468.064 43.2687C468.729 43.2687 469.31 43.4051 469.809 43.6778C470.308 43.9463 470.695 44.3553 470.972 44.9051C471.249 45.4505 471.388 46.1409 471.388 46.9761V53.2147H469.879V47.0784C469.879 46.3071 469.679 45.7062 469.278 45.2758C468.878 44.8411 468.328 44.6238 467.629 44.6238C467.148 44.6238 466.717 44.7282 466.338 44.937C465.963 45.1458 465.667 45.4505 465.45 45.8511C465.232 46.2517 465.124 46.7374 465.124 47.3085ZM478.107 57.1011C477.379 57.1011 476.752 57.0073 476.228 56.8198C475.704 56.6366 475.267 56.3937 474.918 56.0911C474.573 55.7928 474.298 55.4732 474.093 55.1323L475.295 54.2886C475.431 54.4676 475.604 54.6721 475.813 54.9022C476.021 55.1366 476.307 55.339 476.669 55.5095C477.036 55.6842 477.515 55.7715 478.107 55.7715C478.9 55.7715 479.554 55.5798 480.07 55.1963C480.585 54.8127 480.843 54.2119 480.843 53.3937V51.3994H480.715C480.605 51.5784 480.447 51.7999 480.242 52.0642C480.042 52.3241 479.752 52.5563 479.373 52.7609C478.998 52.9612 478.491 53.0613 477.852 53.0613C477.059 53.0613 476.347 52.8738 475.717 52.4988C475.09 52.1238 474.594 51.5784 474.227 50.8624C473.865 50.1465 473.684 49.2772 473.684 48.2545C473.684 47.2488 473.861 46.3731 474.215 45.6274C474.568 44.8774 475.061 44.2978 475.691 43.8887C476.322 43.4754 477.051 43.2687 477.877 43.2687C478.517 43.2687 479.024 43.3752 479.399 43.5883C479.778 43.7971 480.068 44.0357 480.268 44.3042C480.472 44.5684 480.63 44.7857 480.741 44.9562H480.894V43.3965H482.352V53.496C482.352 54.3397 482.16 55.0258 481.776 55.5542C481.397 56.0869 480.886 56.4768 480.242 56.724C479.603 56.9754 478.892 57.1011 478.107 57.1011ZM478.056 51.7062C478.661 51.7062 479.173 51.5677 479.59 51.2907C480.008 51.0137 480.325 50.6153 480.543 50.0954C480.76 49.5755 480.869 48.9534 480.869 48.2289C480.869 47.5215 480.762 46.8973 480.549 46.3561C480.336 45.8149 480.021 45.3909 479.603 45.084C479.186 44.7772 478.67 44.6238 478.056 44.6238C477.417 44.6238 476.884 44.7857 476.458 45.1096C476.036 45.4335 475.719 45.8681 475.506 46.4136C475.297 46.959 475.193 47.5642 475.193 48.2289C475.193 48.9107 475.299 49.5137 475.512 50.0379C475.73 50.5578 476.049 50.9669 476.471 51.2651C476.897 51.5592 477.426 51.7062 478.056 51.7062Z" fill="#FF718B"/>
<path d="M46.4043 84.2147V64.2147H47.6855V84.2147H46.4043ZM49.8027 70.8163C49.7402 70.1861 49.472 69.6965 48.998 69.3475C48.5241 68.9986 47.8809 68.8241 47.0684 68.8241C46.5163 68.8241 46.0501 68.9022 45.6699 69.0585C45.2897 69.2095 44.998 69.4205 44.7949 69.6913C44.597 69.9621 44.498 70.2694 44.498 70.6132C44.4876 70.8996 44.5475 71.1496 44.6777 71.3632C44.8132 71.5767 44.998 71.7616 45.2324 71.9178C45.4668 72.0689 45.7376 72.2017 46.0449 72.3163C46.3522 72.4257 46.6803 72.5194 47.0293 72.5975L48.4668 72.9413C49.1647 73.0975 49.8053 73.3059 50.3887 73.5663C50.972 73.8267 51.4772 74.147 51.9043 74.5272C52.3314 74.9074 52.6621 75.3553 52.8965 75.871C53.1361 76.3866 53.2585 76.9777 53.2637 77.6444C53.2585 78.6236 53.0085 79.4725 52.5137 80.1913C52.0241 80.9048 51.3158 81.4595 50.3887 81.8553C49.4668 82.246 48.3548 82.4413 47.0527 82.4413C45.7611 82.4413 44.6361 82.2434 43.6777 81.8475C42.7246 81.4517 41.9798 80.8658 41.4434 80.0897C40.9121 79.3085 40.6335 78.3423 40.6074 77.1913H43.8809C43.9173 77.7277 44.071 78.1757 44.3418 78.535C44.6178 78.8892 44.985 79.1574 45.4434 79.3397C45.9069 79.5168 46.4303 79.6053 47.0137 79.6053C47.5866 79.6053 48.084 79.522 48.5059 79.3553C48.9329 79.1887 49.2637 78.9569 49.498 78.66C49.7324 78.3632 49.8496 78.022 49.8496 77.6366C49.8496 77.2772 49.7428 76.9751 49.5293 76.7303C49.321 76.4856 49.0137 76.2772 48.6074 76.1053C48.2064 75.9335 47.7142 75.7772 47.1309 75.6366L45.3887 75.1991C44.0397 74.871 42.9746 74.358 42.1934 73.66C41.4121 72.9621 41.0241 72.022 41.0293 70.8397C41.0241 69.871 41.2819 69.0246 41.8027 68.3007C42.3288 67.5767 43.0501 67.0116 43.9668 66.6053C44.8835 66.1991 45.9251 65.996 47.0918 65.996C48.2793 65.996 49.3158 66.1991 50.2012 66.6053C51.0918 67.0116 51.7845 67.5767 52.2793 68.3007C52.7741 69.0246 53.0293 69.8632 53.0449 70.8163H49.8027ZM61.3594 82.4335C60.1927 82.4335 59.1536 82.233 58.2422 81.8319C57.3359 81.4257 56.6198 80.8684 56.0938 80.16C55.5729 79.4465 55.3047 78.6236 55.2891 77.6913H58.6953C58.7161 78.0819 58.8438 78.4257 59.0781 78.7225C59.3177 79.0142 59.6354 79.2408 60.0312 79.4022C60.4271 79.5637 60.8724 79.6444 61.3672 79.6444C61.8828 79.6444 62.3385 79.5533 62.7344 79.371C63.1302 79.1887 63.4401 78.9361 63.6641 78.6132C63.888 78.2902 64 77.9178 64 77.496C64 77.0689 63.8802 76.6913 63.6406 76.3632C63.4063 76.0298 63.0677 75.7694 62.625 75.5819C62.1875 75.3944 61.6667 75.3007 61.0625 75.3007H59.5703V72.8163H61.0625C61.5729 72.8163 62.0234 72.7277 62.4141 72.5507C62.8099 72.3736 63.1172 72.1288 63.3359 71.8163C63.5547 71.4986 63.6641 71.1288 63.6641 70.7069C63.6641 70.3059 63.5677 69.9543 63.375 69.6522C63.1875 69.3449 62.9219 69.1053 62.5781 68.9335C62.2396 68.7616 61.8438 68.6757 61.3906 68.6757C60.9323 68.6757 60.513 68.759 60.1328 68.9257C59.7526 69.0871 59.4479 69.3189 59.2188 69.621C58.9896 69.9231 58.8672 70.2772 58.8516 70.6835H55.6094C55.625 69.7616 55.888 68.9491 56.3984 68.246C56.9089 67.5428 57.5964 66.9934 58.4609 66.5975C59.3307 66.1965 60.3125 65.996 61.4063 65.996C62.5104 65.996 63.4766 66.1965 64.3047 66.5975C65.1328 66.9986 65.776 67.5402 66.2344 68.2225C66.6979 68.8996 66.9271 69.66 66.9219 70.5038C66.9271 71.3996 66.6484 72.147 66.0859 72.746C65.5286 73.3449 64.8021 73.7251 63.9063 73.8866V74.0116C65.0833 74.1626 65.9792 74.5715 66.5938 75.2382C67.2135 75.8996 67.5208 76.7277 67.5156 77.7225C67.5208 78.634 67.2578 79.4439 66.7266 80.1522C66.2005 80.8606 65.474 81.4178 64.5469 81.8241C63.6198 82.2303 62.5573 82.4335 61.3594 82.4335ZM69.9473 82.2147V79.7772L75.6426 74.5038C76.127 74.035 76.5332 73.6132 76.8613 73.2382C77.1947 72.8632 77.4473 72.496 77.6191 72.1366C77.791 71.772 77.877 71.3788 77.877 70.9569C77.877 70.4882 77.7702 70.0845 77.5566 69.746C77.3431 69.4022 77.0514 69.1392 76.6816 68.9569C76.3118 68.7694 75.8926 68.6757 75.4238 68.6757C74.9342 68.6757 74.5072 68.7746 74.1426 68.9725C73.778 69.1705 73.4967 69.4543 73.2988 69.8241C73.1009 70.1939 73.002 70.634 73.002 71.1444H69.791C69.791 70.0975 70.028 69.1887 70.502 68.4178C70.9759 67.647 71.64 67.0507 72.4941 66.6288C73.3483 66.2069 74.3327 65.996 75.4473 65.996C76.5931 65.996 77.5905 66.1991 78.4395 66.6053C79.2936 67.0064 79.9577 67.5637 80.4316 68.2772C80.9056 68.9908 81.1426 69.8085 81.1426 70.7303C81.1426 71.3345 81.0228 71.9309 80.7832 72.5194C80.5488 73.108 80.1296 73.7616 79.5254 74.4803C78.9212 75.1939 78.0697 76.0507 76.9707 77.0507L74.6348 79.3397V79.4491H81.3535V82.2147H69.9473ZM87.4531 80.0272L87.3672 80.8866C87.2995 81.5741 87.1693 82.259 86.9766 82.9413C86.7891 83.6288 86.5911 84.2512 86.3828 84.8085C86.1797 85.3658 86.0156 85.8033 85.8906 86.121H83.7344C83.8125 85.8137 83.9193 85.384 84.0547 84.8319C84.1901 84.285 84.3177 83.6705 84.4375 82.9882C84.5573 82.3059 84.6328 81.6106 84.6641 80.9022L84.7031 80.0272H87.4531ZM96.0938 82.5663C94.75 82.5611 93.5938 82.2303 92.625 81.5741C91.6615 80.9178 90.9193 79.9673 90.3984 78.7225C89.8828 77.4777 89.6276 75.9803 89.6328 74.2303C89.6328 72.4856 89.8906 70.9986 90.4063 69.7694C90.9271 68.5402 91.6693 67.6053 92.6328 66.9647C93.6016 66.3189 94.7552 65.996 96.0938 65.996C97.4323 65.996 98.5833 66.3189 99.5469 66.9647C100.516 67.6106 101.26 68.5481 101.781 69.7772C102.302 71.0012 102.56 72.4856 102.555 74.2303C102.555 75.9856 102.294 77.4856 101.773 78.7303C101.258 79.9751 100.518 80.9257 99.5547 81.5819C98.5911 82.2382 97.4375 82.5663 96.0938 82.5663ZM96.0938 79.7616C97.0104 79.7616 97.7422 79.3007 98.2891 78.3788C98.8359 77.4569 99.1068 76.0741 99.1016 74.2303C99.1016 73.0168 98.9766 72.0064 98.7266 71.1991C98.4818 70.3918 98.1328 69.785 97.6797 69.3788C97.2318 68.9725 96.7031 68.7694 96.0938 68.7694C95.1823 68.7694 94.4531 69.2251 93.9063 70.1366C93.3594 71.0481 93.0833 72.4126 93.0781 74.2303C93.0781 75.4595 93.2005 76.4856 93.4453 77.3085C93.6953 78.1262 94.0469 78.7408 94.5 79.1522C94.9531 79.5585 95.4844 79.7616 96.0938 79.7616ZM111.24 82.5663C109.896 82.5611 108.74 82.2303 107.771 81.5741C106.808 80.9178 106.066 79.9673 105.545 78.7225C105.029 77.4777 104.774 75.9803 104.779 74.2303C104.779 72.4856 105.037 70.9986 105.553 69.7694C106.074 68.5402 106.816 67.6053 107.779 66.9647C108.748 66.3189 109.902 65.996 111.24 65.996C112.579 65.996 113.73 66.3189 114.693 66.9647C115.662 67.6106 116.407 68.5481 116.928 69.7772C117.449 71.0012 117.706 72.4856 117.701 74.2303C117.701 75.9856 117.441 77.4856 116.92 78.7303C116.404 79.9751 115.665 80.9257 114.701 81.5819C113.738 82.2382 112.584 82.5663 111.24 82.5663ZM111.24 79.7616C112.157 79.7616 112.889 79.3007 113.436 78.3788C113.982 77.4569 114.253 76.0741 114.248 74.2303C114.248 73.0168 114.123 72.0064 113.873 71.1991C113.628 70.3918 113.279 69.785 112.826 69.3788C112.378 68.9725 111.85 68.7694 111.24 68.7694C110.329 68.7694 109.6 69.2251 109.053 70.1366C108.506 71.0481 108.23 72.4126 108.225 74.2303C108.225 75.4595 108.347 76.4856 108.592 77.3085C108.842 78.1262 109.193 78.7408 109.646 79.1522C110.1 79.5585 110.631 79.7616 111.24 79.7616ZM126.387 82.5663C125.043 82.5611 123.887 82.2303 122.918 81.5741C121.954 80.9178 121.212 79.9673 120.691 78.7225C120.176 77.4777 119.921 75.9803 119.926 74.2303C119.926 72.4856 120.184 70.9986 120.699 69.7694C121.22 68.5402 121.962 67.6053 122.926 66.9647C123.895 66.3189 125.048 65.996 126.387 65.996C127.725 65.996 128.876 66.3189 129.84 66.9647C130.809 67.6106 131.553 68.5481 132.074 69.7772C132.595 71.0012 132.853 72.4856 132.848 74.2303C132.848 75.9856 132.587 77.4856 132.066 78.7303C131.551 79.9751 130.811 80.9257 129.848 81.5819C128.884 82.2382 127.73 82.5663 126.387 82.5663ZM126.387 79.7616C127.303 79.7616 128.035 79.3007 128.582 78.3788C129.129 77.4569 129.4 76.0741 129.395 74.2303C129.395 73.0168 129.27 72.0064 129.02 71.1991C128.775 70.3918 128.426 69.785 127.973 69.3788C127.525 68.9725 126.996 68.7694 126.387 68.7694C125.475 68.7694 124.746 69.2251 124.199 70.1366C123.652 71.0481 123.376 72.4126 123.371 74.2303C123.371 75.4595 123.493 76.4856 123.738 77.3085C123.988 78.1262 124.34 78.7408 124.793 79.1522C125.246 79.5585 125.777 79.7616 126.387 79.7616Z" fill="#1E1B39"/>
<path d="M48.4767 43.3965C48.4 42.7488 48.089 42.246 47.5435 41.888C46.998 41.5301 46.329 41.3511 45.5364 41.3511C44.9569 41.3511 44.4498 41.4448 44.0151 41.6323C43.5847 41.8198 43.248 42.0776 43.0051 42.4058C42.7665 42.7339 42.6472 43.1068 42.6472 43.5244C42.6472 43.8738 42.7303 44.1742 42.8965 44.4257C43.0669 44.6728 43.2843 44.8795 43.5485 45.0457C43.8127 45.2076 44.0897 45.3419 44.3794 45.4484C44.6692 45.5507 44.9355 45.6338 45.1784 45.6977L46.508 46.0556C46.8489 46.1451 47.2282 46.2687 47.6458 46.4264C48.0676 46.584 48.4703 46.7992 48.8539 47.072C49.2417 47.3404 49.5613 47.6856 49.8127 48.1075C50.0641 48.5294 50.1898 49.0471 50.1898 49.6607C50.1898 50.3681 50.0044 51.0073 49.6337 51.5784C49.2672 52.1494 48.7303 52.6032 48.0229 52.9399C47.3198 53.2765 46.4654 53.4448 45.4597 53.4448C44.5222 53.4448 43.7104 53.2936 43.0243 52.991C42.3425 52.6884 41.8056 52.2666 41.4135 51.7254C41.0257 51.1842 40.8063 50.5556 40.7551 49.8397H42.3915C42.4341 50.334 42.6003 50.7431 42.8901 51.067C43.1841 51.3866 43.5549 51.6252 44.0023 51.7829C44.454 51.9363 44.9398 52.013 45.4597 52.013C46.0648 52.013 46.6081 51.915 47.0897 51.719C47.5712 51.5187 47.9526 51.2417 48.2338 50.888C48.5151 50.5301 48.6557 50.1124 48.6557 49.6352C48.6557 49.2005 48.5343 48.8468 48.2914 48.5741C48.0485 48.3014 47.7289 48.0798 47.3326 47.9093C46.9363 47.7389 46.508 47.5897 46.0478 47.4619L44.437 47.0017C43.4142 46.7076 42.6046 46.2879 42.008 45.7424C41.4114 45.197 41.1131 44.4832 41.1131 43.6011C41.1131 42.8681 41.3113 42.2289 41.7076 41.6835C42.1081 41.1338 42.6451 40.7076 43.3184 40.4051C43.9959 40.0982 44.7523 39.9448 45.5875 39.9448C46.4313 39.9448 47.1813 40.0961 47.8375 40.3987C48.4938 40.697 49.0137 41.1061 49.3972 41.6259C49.785 42.1458 49.9895 42.736 50.0108 43.3965H48.4767ZM55.4808 53.4448C54.8587 53.4448 54.294 53.3276 53.7869 53.0933C53.2798 52.8546 52.8771 52.5116 52.5788 52.0642C52.2805 51.6124 52.1314 51.067 52.1314 50.4278C52.1314 49.8653 52.2422 49.4093 52.4638 49.0599C52.6854 48.7062 52.9815 48.4292 53.3523 48.2289C53.723 48.0286 54.1321 47.8795 54.5795 47.7815C55.0313 47.6792 55.4851 47.5982 55.9411 47.5386C56.5376 47.4619 57.0213 47.4044 57.392 47.366C57.767 47.3234 58.0398 47.2531 58.2102 47.1551C58.3849 47.0571 58.4723 46.8866 58.4723 46.6437V46.5926C58.4723 45.9619 58.2997 45.4718 57.9545 45.1224C57.6136 44.773 57.0959 44.5982 56.4013 44.5982C55.6811 44.5982 55.1165 44.7559 54.7074 45.0713C54.2983 45.3866 54.0107 45.7232 53.8445 46.0812L52.4126 45.5698C52.6683 44.9732 53.0092 44.5088 53.4354 44.1764C53.8658 43.8397 54.3345 43.6053 54.8416 43.4732C55.353 43.3369 55.8558 43.2687 56.3501 43.2687C56.6655 43.2687 57.0277 43.3071 57.4368 43.3838C57.8501 43.4562 58.2486 43.6075 58.6321 43.8376C59.0199 44.0677 59.3416 44.415 59.5973 44.8795C59.853 45.344 59.9808 45.9661 59.9808 46.746V53.2147H58.4723V51.8852H58.3956C58.2933 52.0982 58.1229 52.3262 57.8842 52.5691C57.6456 52.812 57.3281 53.0187 56.9318 53.1892C56.5355 53.3596 56.0518 53.4448 55.4808 53.4448ZM55.7109 52.0897C56.3075 52.0897 56.8104 51.9725 57.2195 51.7382C57.6328 51.5038 57.9439 51.2012 58.1527 50.8305C58.3658 50.4597 58.4723 50.0698 58.4723 49.6607V48.2801C58.4084 48.3568 58.2678 48.4271 58.0504 48.491C57.8374 48.5507 57.5902 48.6039 57.3089 48.6508C57.032 48.6934 56.7614 48.7318 56.4972 48.7659C56.2372 48.7957 56.0263 48.8213 55.8643 48.8426C55.4723 48.8937 55.1058 48.9768 54.7649 49.0919C54.4283 49.2026 54.1555 49.371 53.9467 49.5968C53.7422 49.8184 53.6399 50.121 53.6399 50.5045C53.6399 51.0286 53.8338 51.4249 54.2216 51.6934C54.6136 51.9576 55.1101 52.0897 55.7109 52.0897ZM64.2427 40.1238V53.2147H62.7342V40.1238H64.2427ZM71.1222 53.4193C70.1761 53.4193 69.3601 53.2105 68.674 52.7928C67.9922 52.371 67.4659 51.7829 67.0952 51.0286C66.7287 50.2701 66.5455 49.388 66.5455 48.3823C66.5455 47.3767 66.7287 46.4903 67.0952 45.7232C67.4659 44.9519 67.9815 44.3511 68.642 43.9207C69.3068 43.486 70.0824 43.2687 70.9688 43.2687C71.4801 43.2687 71.9851 43.3539 72.4837 43.5244C72.9822 43.6948 73.4361 43.9718 73.8452 44.3553C74.2543 44.7346 74.5803 45.2374 74.8232 45.8639C75.0661 46.4903 75.1875 47.2616 75.1875 48.1778V48.817H67.6193V47.513H73.6534C73.6534 46.959 73.5426 46.4647 73.321 46.0301C73.1037 45.5954 72.7926 45.2524 72.3878 45.0009C71.9872 44.7495 71.5142 44.6238 70.9688 44.6238C70.3679 44.6238 69.848 44.773 69.4091 45.0713C68.9744 45.3653 68.6399 45.7488 68.4055 46.2218C68.1712 46.6948 68.054 47.2019 68.054 47.7431V48.6124C68.054 49.3539 68.1818 49.9825 68.4375 50.4981C68.6974 51.0095 69.0575 51.3994 69.5178 51.6678C69.978 51.9321 70.5128 52.0642 71.1222 52.0642C71.5185 52.0642 71.8764 52.0088 72.196 51.898C72.5199 51.7829 72.799 51.6124 73.0334 51.3866C73.2678 51.1565 73.4489 50.871 73.5767 50.5301L75.0341 50.9392C74.8807 51.4335 74.6229 51.8681 74.2607 52.2431C73.8984 52.6139 73.451 52.9036 72.9183 53.1124C72.3857 53.317 71.7869 53.4193 71.1222 53.4193ZM84.4368 45.5954L83.0817 45.9789C82.9964 45.7531 82.8707 45.5336 82.7045 45.3205C82.5426 45.1032 82.321 44.9242 82.0398 44.7836C81.7585 44.643 81.3984 44.5727 80.9595 44.5727C80.3587 44.5727 79.858 44.7112 79.4574 44.9882C79.0611 45.2609 78.8629 45.6082 78.8629 46.0301C78.8629 46.4051 78.9993 46.7012 79.272 46.9186C79.5447 47.1359 79.9709 47.317 80.5504 47.4619L82.0078 47.8198C82.8857 48.0329 83.5398 48.3589 83.9702 48.7978C84.4006 49.2325 84.6158 49.7928 84.6158 50.4789C84.6158 51.0414 84.4538 51.5443 84.13 51.9874C83.8104 52.4306 83.3629 52.7801 82.7876 53.0357C82.2124 53.2914 81.5433 53.4193 80.7805 53.4193C79.7791 53.4193 78.9503 53.2019 78.294 52.7673C77.6378 52.3326 77.2223 51.6977 77.0476 50.8624L78.4794 50.5045C78.6158 51.0329 78.8736 51.4292 79.2528 51.6934C79.6364 51.9576 80.1371 52.0897 80.755 52.0897C81.4581 52.0897 82.0163 51.9406 82.4297 51.6423C82.8473 51.3397 83.0561 50.9775 83.0561 50.5556C83.0561 50.2147 82.9368 49.9292 82.6982 49.6991C82.4595 49.4647 82.093 49.29 81.5987 49.1749L79.9624 48.7914C79.0632 48.5784 78.4027 48.2481 77.9808 47.8007C77.5632 47.349 77.3544 46.7843 77.3544 46.1068C77.3544 45.5528 77.5099 45.0627 77.821 44.6366C78.1364 44.2105 78.5646 43.8759 79.1058 43.633C79.6513 43.3901 80.2692 43.2687 80.9595 43.2687C81.9311 43.2687 82.6939 43.4818 83.2479 43.9079C83.8061 44.334 84.2024 44.8965 84.4368 45.5954ZM95.9121 57.1011C95.1834 57.1011 94.557 57.0073 94.0328 56.8198C93.5087 56.6366 93.0719 56.3937 92.7225 56.0911C92.3773 55.7928 92.1025 55.4732 91.8979 55.1323L93.0996 54.2886C93.236 54.4676 93.4086 54.6721 93.6174 54.9022C93.8262 55.1366 94.1117 55.339 94.4739 55.5095C94.8404 55.6842 95.3198 55.7715 95.9121 55.7715C96.7047 55.7715 97.3588 55.5798 97.8745 55.1963C98.3901 54.8127 98.6479 54.2119 98.6479 53.3937V51.3994H98.5201C98.4093 51.5784 98.2516 51.7999 98.0471 52.0642C97.8468 52.3241 97.557 52.5563 97.1777 52.7609C96.8027 52.9612 96.2956 53.0613 95.6564 53.0613C94.8638 53.0613 94.1522 52.8738 93.5215 52.4988C92.8951 52.1238 92.3986 51.5784 92.0321 50.8624C91.6699 50.1465 91.4888 49.2772 91.4888 48.2545C91.4888 47.2488 91.6657 46.3731 92.0194 45.6274C92.373 44.8774 92.8652 44.2978 93.4959 43.8887C94.1266 43.4754 94.8553 43.2687 95.682 43.2687C96.3212 43.2687 96.8283 43.3752 97.2033 43.5883C97.5826 43.7971 97.8723 44.0357 98.0726 44.3042C98.2772 44.5684 98.4348 44.7857 98.5456 44.9562H98.699V43.3965H100.156V53.496C100.156 54.3397 99.9647 55.0258 99.5811 55.5542C99.2019 56.0869 98.6905 56.4768 98.0471 56.724C97.4078 56.9754 96.6962 57.1011 95.9121 57.1011ZM95.861 51.7062C96.4661 51.7062 96.9775 51.5677 97.3951 51.2907C97.8127 51.0137 98.1301 50.6153 98.3475 50.0954C98.5648 49.5755 98.6735 48.9534 98.6735 48.2289C98.6735 47.5215 98.5669 46.8973 98.3539 46.3561C98.1408 45.8149 97.8255 45.3909 97.4078 45.084C96.9902 44.7772 96.4746 44.6238 95.861 44.6238C95.2218 44.6238 94.6891 44.7857 94.263 45.1096C93.8411 45.4335 93.5236 45.8681 93.3105 46.4136C93.1017 46.959 92.9973 47.5642 92.9973 48.2289C92.9973 48.9107 93.1039 49.5137 93.3169 50.0379C93.5343 50.5578 93.8539 50.9669 94.2757 51.2651C94.7019 51.5592 95.2303 51.7062 95.861 51.7062ZM106.906 53.4193C106.02 53.4193 105.242 53.2083 104.573 52.7865C103.909 52.3646 103.389 51.7744 103.014 51.0159C102.643 50.2573 102.458 49.371 102.458 48.3568C102.458 47.334 102.643 46.4413 103.014 45.6785C103.389 44.9157 103.909 44.3234 104.573 43.9015C105.242 43.4796 106.02 43.2687 106.906 43.2687C107.793 43.2687 108.568 43.4796 109.233 43.9015C109.902 44.3234 110.422 44.9157 110.793 45.6785C111.168 46.4413 111.355 47.334 111.355 48.3568C111.355 49.371 111.168 50.2573 110.793 51.0159C110.422 51.7744 109.902 52.3646 109.233 52.7865C108.568 53.2083 107.793 53.4193 106.906 53.4193ZM106.906 52.0642C107.58 52.0642 108.134 51.8916 108.568 51.5464C109.003 51.2012 109.325 50.7474 109.534 50.1849C109.742 49.6224 109.847 49.013 109.847 48.3568C109.847 47.7005 109.742 47.089 109.534 46.5222C109.325 45.9555 109.003 45.4974 108.568 45.148C108.134 44.7985 107.58 44.6238 106.906 44.6238C106.233 44.6238 105.679 44.7985 105.244 45.148C104.81 45.4974 104.488 45.9555 104.279 46.5222C104.07 47.089 103.966 47.7005 103.966 48.3568C103.966 49.013 104.07 49.6224 104.279 50.1849C104.488 50.7474 104.81 51.2012 105.244 51.5464C105.679 51.8916 106.233 52.0642 106.906 52.0642ZM116.547 53.4448C115.925 53.4448 115.36 53.3276 114.853 53.0933C114.346 52.8546 113.944 52.5116 113.645 52.0642C113.347 51.6124 113.198 51.067 113.198 50.4278C113.198 49.8653 113.309 49.4093 113.53 49.0599C113.752 48.7062 114.048 48.4292 114.419 48.2289C114.789 48.0286 115.199 47.8795 115.646 47.7815C116.098 47.6792 116.551 47.5982 117.007 47.5386C117.604 47.4619 118.088 47.4044 118.458 47.366C118.833 47.3234 119.106 47.2531 119.277 47.1551C119.451 47.0571 119.539 46.8866 119.539 46.6437V46.5926C119.539 45.9619 119.366 45.4718 119.021 45.1224C118.68 44.773 118.162 44.5982 117.468 44.5982C116.748 44.5982 116.183 44.7559 115.774 45.0713C115.365 45.3866 115.077 45.7232 114.911 46.0812L113.479 45.5698C113.735 44.9732 114.076 44.5088 114.502 44.1764C114.932 43.8397 115.401 43.6053 115.908 43.4732C116.419 43.3369 116.922 43.2687 117.417 43.2687C117.732 43.2687 118.094 43.3071 118.503 43.3838C118.917 43.4562 119.315 43.6075 119.699 43.8376C120.086 44.0677 120.408 44.415 120.664 44.8795C120.919 45.344 121.047 45.9661 121.047 46.746V53.2147H119.539V51.8852H119.462C119.36 52.0982 119.189 52.3262 118.951 52.5691C118.712 52.812 118.395 53.0187 117.998 53.1892C117.602 53.3596 117.118 53.4448 116.547 53.4448ZM116.777 52.0897C117.374 52.0897 117.877 51.9725 118.286 51.7382C118.699 51.5038 119.01 51.2012 119.219 50.8305C119.432 50.4597 119.539 50.0698 119.539 49.6607V48.2801C119.475 48.3568 119.334 48.4271 119.117 48.491C118.904 48.5507 118.657 48.6039 118.375 48.6508C118.098 48.6934 117.828 48.7318 117.564 48.7659C117.304 48.7957 117.093 48.8213 116.931 48.8426C116.539 48.8937 116.172 48.9768 115.831 49.0919C115.495 49.2026 115.222 49.371 115.013 49.5968C114.809 49.8184 114.706 50.121 114.706 50.5045C114.706 51.0286 114.9 51.4249 115.288 51.6934C115.68 51.9576 116.176 52.0897 116.777 52.0897ZM125.309 40.1238V53.2147H123.801V40.1238H125.309Z" fill="#615E83"/>
<defs>
<filter id="filter0_d_143_1130" x="0.642578" y="0.214722" width="522" height="422" filterUnits="userSpaceOnUse" color-interpolation-filters="sRGB">
<feFlood flood-opacity="0" result="BackgroundImageFix"/>
<feColorMatrix in="SourceAlpha" type="matrix" values="0 0 0 0 0 0 0 0 0 0 0 0 0 0 0 0 0 0 127 0" result="hardAlpha"/>
<feOffset dy="2"/>
<feGaussianBlur stdDeviation="3"/>
<feComposite in2="hardAlpha" operator="out"/>
<feColorMatrix type="matrix" values="0 0 0 0 0.0509804 0 0 0 0 0.0392157 0 0 0 0 0.172549 0 0 0 0.08 0"/>
<feBlend mode="normal" in2="BackgroundImageFix" result="effect1_dropShadow_143_1130"/>
<feBlend mode="normal" in="SourceGraphic" in2="effect1_dropShadow_143_1130" result="shape"/>
</filter>
<filter id="filter1_d_143_1130" x="277.668" y="146.215" width="68.7441" height="68.7445" filterUnits="userSpaceOnUse" color-interpolation-filters="sRGB">
<feFlood flood-opacity="0" result="BackgroundImageFix"/>
<feColorMatrix in="SourceAlpha" type="matrix" values="0 0 0 0 0 0 0 0 0 0 0 0 0 0 0 0 0 0 127 0" result="hardAlpha"/>
<feOffset dy="8"/>
<feGaussianBlur stdDeviation="4"/>
<feComposite in2="hardAlpha" operator="out"/>
<feColorMatrix type="matrix" values="0 0 0 0 0.0509804 0 0 0 0 0.0392157 0 0 0 0 0.172549 0 0 0 0.08 0"/>
<feBlend mode="normal" in2="BackgroundImageFix" result="effect1_dropShadow_143_1130"/>
<feBlend mode="normal" in="SourceGraphic" in2="effect1_dropShadow_143_1130" result="shape"/>
</filter>
</defs>
</svg>
