<svg width="211" height="62" viewBox="0 0 211 62" fill="none" xmlns="http://www.w3.org/2000/svg">
<path d="M81.6966 43.4995V21.0415H73.9446V16.8995H94.5786V21.0415H86.8266V43.4995H81.6966ZM103.176 43.9555C101.25 43.9555 99.5402 43.5502 98.0455 42.7395C96.5762 41.9288 95.4235 40.7888 94.5875 39.3195C93.7515 37.8502 93.3335 36.1655 93.3335 34.2655C93.3335 32.2895 93.7389 30.5542 94.5495 29.0595C95.3855 27.5395 96.5382 26.3488 98.0075 25.4875C99.5022 24.6262 101.238 24.1955 103.214 24.1955C105.088 24.1955 106.735 24.6008 108.154 25.4115C109.572 26.2222 110.687 27.3368 111.498 28.7555C112.308 30.1488 112.714 31.7322 112.714 33.5055C112.714 33.7588 112.714 34.0502 112.714 34.3795C112.714 34.6835 112.688 35.0002 112.638 35.3295H96.9815V32.1755H107.508C107.432 30.9848 106.988 30.0348 106.178 29.3255C105.392 28.6162 104.404 28.2615 103.214 28.2615C102.327 28.2615 101.516 28.4642 100.782 28.8695C100.047 29.2495 99.4642 29.8448 99.0335 30.6555C98.6029 31.4408 98.3875 32.4415 98.3875 33.6575V34.7595C98.3875 35.7982 98.5902 36.6975 98.9955 37.4575C99.4009 38.1922 99.9582 38.7622 100.668 39.1675C101.402 39.5728 102.226 39.7755 103.138 39.7755C104.075 39.7755 104.86 39.5728 105.494 39.1675C106.127 38.7368 106.608 38.1922 106.938 37.5335H112.182C111.802 38.7242 111.194 39.8135 110.358 40.8015C109.522 41.7642 108.496 42.5368 107.28 43.1195C106.064 43.6768 104.696 43.9555 103.176 43.9555ZM124.552 43.9555C122.551 43.9555 120.803 43.5375 119.308 42.7015C117.839 41.8402 116.686 40.6748 115.85 39.2055C115.04 37.7108 114.634 36.0008 114.634 34.0755C114.634 32.1502 115.052 30.4528 115.888 28.9835C116.75 27.4888 117.915 26.3235 119.384 25.4875C120.879 24.6262 122.602 24.1955 124.552 24.1955C126.984 24.1955 129.036 24.8288 130.708 26.0955C132.38 27.3622 133.432 29.1102 133.862 31.3395H128.428C128.226 30.4275 127.757 29.7308 127.022 29.2495C126.313 28.7428 125.477 28.4895 124.514 28.4895C123.628 28.4895 122.83 28.7175 122.12 29.1735C121.436 29.6042 120.892 30.2375 120.486 31.0735C120.081 31.9095 119.878 32.9102 119.878 34.0755C119.878 34.9368 119.992 35.7095 120.22 36.3935C120.448 37.0522 120.765 37.6348 121.17 38.1415C121.601 38.6228 122.095 38.9902 122.652 39.2435C123.21 39.4715 123.83 39.5855 124.514 39.5855C125.173 39.5855 125.768 39.4842 126.3 39.2815C126.832 39.0535 127.288 38.7368 127.668 38.3315C128.048 37.9008 128.302 37.3942 128.428 36.8115H133.862C133.432 38.9902 132.38 40.7255 130.708 42.0175C129.036 43.3095 126.984 43.9555 124.552 43.9555ZM136.694 43.4995V16.7855H141.748V27.7675H141.9C142.559 26.6022 143.42 25.7155 144.484 25.1075C145.548 24.4995 146.802 24.1955 148.246 24.1955C149.766 24.1955 151.058 24.5375 152.122 25.2215C153.186 25.8802 153.997 26.8555 154.554 28.1475C155.112 29.4395 155.39 31.0355 155.39 32.9355V43.4995H150.298V33.3915C150.298 31.8208 149.982 30.6175 149.348 29.7815C148.74 28.9455 147.752 28.5275 146.384 28.5275C145.523 28.5275 144.738 28.7428 144.028 29.1735C143.344 29.5788 142.8 30.1742 142.394 30.9595C142.014 31.7195 141.824 32.6568 141.824 33.7715V43.4995H136.694ZM158.626 43.4995V16.7855H163.756V43.4995H158.626ZM167.764 43.4995V24.6515H172.894V43.4995H167.764ZM170.348 22.2195C169.41 22.2195 168.65 21.9408 168.068 21.3835C167.485 20.8262 167.194 20.1422 167.194 19.3315C167.194 18.4955 167.485 17.7988 168.068 17.2415C168.65 16.6842 169.41 16.4055 170.348 16.4055C171.285 16.4055 172.045 16.6842 172.628 17.2415C173.236 17.7988 173.54 18.4955 173.54 19.3315C173.54 20.1422 173.236 20.8262 172.628 21.3835C172.045 21.9408 171.285 22.2195 170.348 22.2195ZM178.1 43.4995V23.2835C178.1 21.7128 178.366 20.4588 178.898 19.5215C179.43 18.5588 180.19 17.8622 181.178 17.4315C182.166 17.0008 183.331 16.7855 184.674 16.7855H186.802V21.0795H185.472C184.661 21.0795 184.078 21.2442 183.724 21.5735C183.394 21.9028 183.23 22.4475 183.23 23.2075V43.4995H178.1ZM175.516 28.7935V24.6515H187.182V28.7935H175.516ZM192.352 51.1755L196.722 41.3715H195.658L187.944 24.6515H193.492L198.964 36.8875H199.078L203.98 24.6515H209.452L197.824 51.1755H192.352Z" fill="white"/>
<path d="M32.9219 8.84226C32.9219 5.86885 36.5379 4.40339 38.608 6.53787L57.6821 26.2056C58.9383 27.5009 59.6408 29.2344 59.6408 31.0388V53.8041C59.6408 56.7775 56.0248 58.243 53.9547 56.1085L34.8806 36.4407C33.6244 35.1454 32.9219 33.4119 32.9219 31.6075V8.84226Z" fill="#9E97FF"/>
<path d="M16.3633 8.19578C16.3633 5.22237 19.9793 3.75691 22.0494 5.89139L40.842 25.2689C42.2788 26.7503 43.0823 28.733 43.0823 30.7966V53.1576C43.0823 56.131 39.4662 57.5965 37.3961 55.462L18.322 35.7942C17.0658 34.4989 16.3633 32.7654 16.3633 30.9611V8.19578Z" fill="#4CBFFF"/>
<path d="M0.359375 8.84226C0.359375 5.86885 3.97542 4.40339 6.04548 6.53787L25.1196 26.2056C26.3758 27.5009 27.0783 29.2344 27.0783 31.0388V53.8041C27.0783 56.7775 23.4623 58.243 21.3922 56.1085L2.3181 36.4407C1.06191 35.1454 0.359375 33.4119 0.359375 31.6075V8.84226Z" fill="#4A3AFF"/>
</svg>
