<svg width="212" height="58" viewBox="0 0 212 58" fill="none" xmlns="http://www.w3.org/2000/svg">
<path d="M86.5214 41.9565C83.8614 41.9565 81.5561 41.3865 79.6054 40.2465C77.6801 39.0812 76.1981 37.4725 75.1594 35.4205C74.1207 33.3432 73.6014 30.9492 73.6014 28.2385C73.6014 25.5278 74.1207 23.1338 75.1594 21.0565C76.2234 18.9792 77.7181 17.3578 79.6434 16.1925C81.5687 15.0272 83.8614 14.4445 86.5214 14.4445C89.7641 14.4445 92.4114 15.2425 94.4634 16.8385C96.5407 18.4345 97.8327 20.6892 98.3394 23.6025H92.6774C92.3734 22.1838 91.6894 21.0818 90.6254 20.2965C89.5867 19.4858 88.2061 19.0805 86.4834 19.0805C84.8874 19.0805 83.5067 19.4605 82.3414 20.2205C81.2014 20.9552 80.3274 22.0065 79.7194 23.3745C79.1367 24.7425 78.8454 26.3638 78.8454 28.2385C78.8454 30.1132 79.1367 31.7345 79.7194 33.1025C80.3274 34.4452 81.2014 35.4838 82.3414 36.2185C83.5067 36.9532 84.8874 37.3205 86.4834 37.3205C88.2061 37.3205 89.5867 36.9532 90.6254 36.2185C91.6894 35.4838 92.3861 34.4452 92.7154 33.1025H98.3394C97.8327 35.8638 96.5407 38.0298 94.4634 39.6005C92.4114 41.1712 89.7641 41.9565 86.5214 41.9565ZM107.522 41.9565C106.002 41.9565 104.748 41.7032 103.76 41.1965C102.798 40.6898 102.088 40.0058 101.632 39.1445C101.176 38.2832 100.948 37.3332 100.948 36.2945C100.948 35.1292 101.24 34.1032 101.822 33.2165C102.43 32.3298 103.33 31.6458 104.52 31.1645C105.736 30.6578 107.269 30.4045 109.118 30.4045H113.868C113.868 29.4672 113.729 28.6945 113.45 28.0865C113.197 27.4785 112.792 27.0352 112.234 26.7565C111.702 26.4525 111.018 26.3005 110.182 26.3005C109.22 26.3005 108.384 26.5158 107.674 26.9465C106.965 27.3772 106.534 28.0612 106.382 28.9985H101.404C101.531 27.6052 101.974 26.4018 102.734 25.3885C103.52 24.3752 104.546 23.5898 105.812 23.0325C107.104 22.4752 108.574 22.1965 110.22 22.1965C112.019 22.1965 113.577 22.5005 114.894 23.1085C116.212 23.6912 117.225 24.5652 117.934 25.7305C118.644 26.8705 118.998 28.2638 118.998 29.9105V41.5005H114.742L114.21 38.5745H114.058C113.704 39.1318 113.286 39.6258 112.804 40.0565C112.348 40.4872 111.842 40.8418 111.284 41.1205C110.752 41.3992 110.17 41.6018 109.536 41.7285C108.903 41.8805 108.232 41.9565 107.522 41.9565ZM109.156 38.0045C109.84 38.0045 110.448 37.8905 110.98 37.6625C111.512 37.4092 111.956 37.0798 112.31 36.6745C112.69 36.2692 112.994 35.8005 113.222 35.2685C113.45 34.7112 113.602 34.1412 113.678 33.5585H109.726C108.941 33.5585 108.295 33.6598 107.788 33.8625C107.282 34.0398 106.914 34.3058 106.686 34.6605C106.458 34.9898 106.344 35.3825 106.344 35.8385C106.344 36.2945 106.458 36.6872 106.686 37.0165C106.94 37.3458 107.269 37.5992 107.674 37.7765C108.105 37.9285 108.599 38.0045 109.156 38.0045ZM122.072 41.5005V22.6525H126.556L127.012 25.7305H127.126C127.709 24.5652 128.507 23.6912 129.52 23.1085C130.559 22.5005 131.762 22.1965 133.13 22.1965C134.093 22.1965 134.967 22.3232 135.752 22.5765C136.538 22.8298 137.234 23.2225 137.842 23.7545C138.45 24.2865 138.957 24.9958 139.362 25.8825H139.476C140.186 24.7172 141.072 23.8178 142.136 23.1845C143.226 22.5258 144.556 22.1965 146.126 22.1965C147.621 22.1965 148.9 22.5385 149.964 23.2225C151.028 23.8812 151.839 24.8565 152.396 26.1485C152.979 27.4405 153.27 29.0365 153.27 30.9365V41.5005H148.178V31.3925C148.178 29.8218 147.874 28.6185 147.266 27.7825C146.684 26.9465 145.734 26.5285 144.416 26.5285C143.58 26.5285 142.846 26.7185 142.212 27.0985C141.604 27.4532 141.123 27.9978 140.768 28.7325C140.414 29.4672 140.236 30.3665 140.236 31.4305V41.5005H135.144V31.3925C135.144 29.8218 134.84 28.6185 134.232 27.7825C133.624 26.9465 132.662 26.5285 131.344 26.5285C130.584 26.5285 129.888 26.7438 129.254 27.1745C128.621 27.5798 128.114 28.1752 127.734 28.9605C127.38 29.7205 127.202 30.6578 127.202 31.7725V41.5005H122.072ZM165.634 41.9565C163.708 41.9565 161.998 41.5512 160.504 40.7405C159.034 39.9298 157.882 38.7898 157.046 37.3205C156.21 35.8512 155.792 34.1665 155.792 32.2665C155.792 30.2905 156.197 28.5552 157.008 27.0605C157.844 25.5405 158.996 24.3498 160.466 23.4885C161.96 22.6272 163.696 22.1965 165.672 22.1965C167.546 22.1965 169.193 22.6018 170.612 23.4125C172.03 24.2232 173.145 25.3378 173.956 26.7565C174.766 28.1498 175.172 29.7332 175.172 31.5065C175.172 31.7598 175.172 32.0512 175.172 32.3805C175.172 32.6845 175.146 33.0012 175.096 33.3305H159.44V30.1765H169.966C169.89 28.9858 169.446 28.0358 168.636 27.3265C167.85 26.6172 166.862 26.2625 165.672 26.2625C164.785 26.2625 163.974 26.4652 163.24 26.8705C162.505 27.2505 161.922 27.8458 161.492 28.6565C161.061 29.4418 160.846 30.4425 160.846 31.6585V32.7605C160.846 33.7992 161.048 34.6985 161.454 35.4585C161.859 36.1932 162.416 36.7632 163.126 37.1685C163.86 37.5738 164.684 37.7765 165.596 37.7765C166.533 37.7765 167.318 37.5738 167.952 37.1685C168.585 36.7378 169.066 36.1932 169.396 35.5345H174.64C174.26 36.7252 173.652 37.8145 172.816 38.8025C171.98 39.7652 170.954 40.5378 169.738 41.1205C168.522 41.6778 167.154 41.9565 165.634 41.9565ZM177.662 41.5005V22.6525H182.07L182.488 26.7185H182.64C183.198 25.4518 183.806 24.5018 184.464 23.8685C185.123 23.2098 185.87 22.7665 186.706 22.5385C187.568 22.3105 188.53 22.1965 189.594 22.1965V27.6305H188.226C187.365 27.6305 186.592 27.7318 185.908 27.9345C185.224 28.1118 184.654 28.4158 184.198 28.8465C183.742 29.2518 183.388 29.7965 183.134 30.4805C182.906 31.1645 182.792 31.9878 182.792 32.9505V41.5005H177.662ZM197.698 41.9565C196.178 41.9565 194.924 41.7032 193.936 41.1965C192.973 40.6898 192.264 40.0058 191.808 39.1445C191.352 38.2832 191.124 37.3332 191.124 36.2945C191.124 35.1292 191.415 34.1032 191.998 33.2165C192.606 32.3298 193.505 31.6458 194.696 31.1645C195.912 30.6578 197.445 30.4045 199.294 30.4045H204.044C204.044 29.4672 203.905 28.6945 203.626 28.0865C203.373 27.4785 202.967 27.0352 202.41 26.7565C201.878 26.4525 201.194 26.3005 200.358 26.3005C199.395 26.3005 198.559 26.5158 197.85 26.9465C197.141 27.3772 196.71 28.0612 196.558 28.9985H191.58C191.707 27.6052 192.15 26.4018 192.91 25.3885C193.695 24.3752 194.721 23.5898 195.988 23.0325C197.28 22.4752 198.749 22.1965 200.396 22.1965C202.195 22.1965 203.753 22.5005 205.07 23.1085C206.387 23.6912 207.401 24.5652 208.11 25.7305C208.819 26.8705 209.174 28.2638 209.174 29.9105V41.5005H204.918L204.386 38.5745H204.234C203.879 39.1318 203.461 39.6258 202.98 40.0565C202.524 40.4872 202.017 40.8418 201.46 41.1205C200.928 41.3992 200.345 41.6018 199.712 41.7285C199.079 41.8805 198.407 41.9565 197.698 41.9565ZM199.332 38.0045C200.016 38.0045 200.624 37.8905 201.156 37.6625C201.688 37.4092 202.131 37.0798 202.486 36.6745C202.866 36.2692 203.17 35.8005 203.398 35.2685C203.626 34.7112 203.778 34.1412 203.854 33.5585H199.902C199.117 33.5585 198.471 33.6598 197.964 33.8625C197.457 34.0398 197.09 34.3058 196.862 34.6605C196.634 34.9898 196.52 35.3825 196.52 35.8385C196.52 36.2945 196.634 36.6872 196.862 37.0165C197.115 37.3458 197.445 37.5992 197.85 37.7765C198.281 37.9285 198.775 38.0045 199.332 38.0045Z" fill="white"/>
<mask id="mask0_1219_43368" style="mask-type:alpha" maskUnits="userSpaceOnUse" x="0" y="0" width="58" height="58">
<circle cx="29.3574" cy="29" r="28.5918" fill="#C4C4C4"/>
</mask>
<g mask="url(#mask0_1219_43368)">
<circle cx="15.7553" cy="-4.66944" r="23.7214" transform="rotate(-22 15.7553 -4.66944)" fill="white"/>
<circle cx="42.9623" cy="62.6685" r="23.7214" transform="rotate(-22 42.9623 62.6685)" fill="white"/>
<circle cx="-4.31014" cy="42.603" r="23.7214" transform="rotate(-22 -4.31014 42.603)" fill="#9E97FF"/>
<circle cx="62.4037" cy="13.8545" r="23.7214" transform="rotate(-22 62.4037 13.8545)" fill="#9E97FF"/>
</g>
</svg>
