<svg width="240" height="50" viewBox="0 0 240 50" fill="none" xmlns="http://www.w3.org/2000/svg">
<path d="M72.9959 37.502V10.902H90.3239V15.044H78.1259V22.15H87.8919V26.178H78.1259V37.502H72.9959ZM93.1543 37.502V18.654H98.2843V37.502H93.1543ZM95.7383 16.222C94.8009 16.222 94.0409 15.9433 93.4583 15.386C92.8756 14.8286 92.5843 14.1446 92.5843 13.334C92.5843 12.498 92.8756 11.8013 93.4583 11.244C94.0409 10.6866 94.8009 10.408 95.7383 10.408C96.6756 10.408 97.4356 10.6866 98.0183 11.244C98.6263 11.8013 98.9303 12.498 98.9303 13.334C98.9303 14.1446 98.6263 14.8286 98.0183 15.386C97.4356 15.9433 96.6756 16.222 95.7383 16.222ZM102.122 37.502V18.654H106.53L106.948 21.732H107.062C107.696 20.6173 108.532 19.756 109.57 19.148C110.609 18.5146 111.914 18.198 113.484 18.198C115.055 18.198 116.385 18.54 117.474 19.224C118.564 19.8826 119.387 20.858 119.944 22.15C120.527 23.442 120.818 25.038 120.818 26.938V37.502H115.726V27.394C115.726 25.8233 115.397 24.62 114.738 23.784C114.105 22.948 113.104 22.53 111.736 22.53C110.875 22.53 110.102 22.7453 109.418 23.176C108.734 23.5813 108.202 24.1766 107.822 24.962C107.442 25.722 107.252 26.6593 107.252 27.774V37.502H102.122ZM130.099 37.958C128.579 37.958 127.325 37.7046 126.337 37.198C125.375 36.6913 124.665 36.0073 124.209 35.146C123.753 34.2846 123.525 33.3346 123.525 32.296C123.525 31.1306 123.817 30.1046 124.399 29.218C125.007 28.3313 125.907 27.6473 127.097 27.166C128.313 26.6593 129.846 26.406 131.695 26.406H136.445C136.445 25.4686 136.306 24.696 136.027 24.088C135.774 23.48 135.369 23.0366 134.811 22.758C134.279 22.454 133.595 22.302 132.759 22.302C131.797 22.302 130.961 22.5173 130.251 22.948C129.542 23.3786 129.111 24.0626 128.959 25H123.981C124.108 23.6066 124.551 22.4033 125.311 21.39C126.097 20.3766 127.123 19.5913 128.389 19.034C129.681 18.4766 131.151 18.198 132.797 18.198C134.596 18.198 136.154 18.502 137.471 19.11C138.789 19.6926 139.802 20.5666 140.511 21.732C141.221 22.872 141.575 24.2653 141.575 25.912V37.502H137.319L136.787 34.576H136.635C136.281 35.1333 135.863 35.6273 135.381 36.058C134.925 36.4886 134.419 36.8433 133.861 37.122C133.329 37.4006 132.747 37.6033 132.113 37.73C131.48 37.882 130.809 37.958 130.099 37.958ZM131.733 34.006C132.417 34.006 133.025 33.892 133.557 33.664C134.089 33.4106 134.533 33.0813 134.887 32.676C135.267 32.2706 135.571 31.802 135.799 31.27C136.027 30.7126 136.179 30.1426 136.255 29.56H132.303C131.518 29.56 130.872 29.6613 130.365 29.864C129.859 30.0413 129.491 30.3073 129.263 30.662C129.035 30.9913 128.921 31.384 128.921 31.84C128.921 32.296 129.035 32.6886 129.263 33.018C129.517 33.3473 129.846 33.6006 130.251 33.778C130.682 33.93 131.176 34.006 131.733 34.006ZM144.65 37.502V18.654H149.058L149.476 21.732H149.59C150.223 20.6173 151.059 19.756 152.098 19.148C153.136 18.5146 154.441 18.198 156.012 18.198C157.582 18.198 158.912 18.54 160.002 19.224C161.091 19.8826 161.914 20.858 162.472 22.15C163.054 23.442 163.346 25.038 163.346 26.938V37.502H158.254V27.394C158.254 25.8233 157.924 24.62 157.266 23.784C156.632 22.948 155.632 22.53 154.264 22.53C153.402 22.53 152.63 22.7453 151.946 23.176C151.262 23.5813 150.73 24.1766 150.35 24.962C149.97 25.722 149.78 26.6593 149.78 27.774V37.502H144.65ZM175.781 37.958C173.779 37.958 172.031 37.54 170.537 36.704C169.067 35.8426 167.915 34.6773 167.079 33.208C166.268 31.7133 165.863 30.0033 165.863 28.078C165.863 26.1526 166.281 24.4553 167.117 22.986C167.978 21.4913 169.143 20.326 170.613 19.49C172.107 18.6286 173.83 18.198 175.781 18.198C178.213 18.198 180.265 18.8313 181.937 20.098C183.609 21.3646 184.66 23.1126 185.091 25.342H179.657C179.454 24.43 178.985 23.7333 178.251 23.252C177.541 22.7453 176.705 22.492 175.743 22.492C174.856 22.492 174.058 22.72 173.349 23.176C172.665 23.6066 172.12 24.24 171.715 25.076C171.309 25.912 171.107 26.9126 171.107 28.078C171.107 28.9393 171.221 29.712 171.449 30.396C171.677 31.0546 171.993 31.6373 172.399 32.144C172.829 32.6253 173.323 32.9926 173.881 33.246C174.438 33.474 175.059 33.588 175.743 33.588C176.401 33.588 176.997 33.4866 177.529 33.284C178.061 33.056 178.517 32.7393 178.897 32.334C179.277 31.9033 179.53 31.3966 179.657 30.814H185.091C184.66 32.9926 183.609 34.728 181.937 36.02C180.265 37.312 178.213 37.958 175.781 37.958ZM197.043 37.958C195.117 37.958 193.407 37.5526 191.913 36.742C190.443 35.9313 189.291 34.7913 188.455 33.322C187.619 31.8526 187.201 30.168 187.201 28.268C187.201 26.292 187.606 24.5566 188.417 23.062C189.253 21.542 190.405 20.3513 191.875 19.49C193.369 18.6286 195.105 18.198 197.081 18.198C198.955 18.198 200.602 18.6033 202.021 19.414C203.439 20.2246 204.554 21.3393 205.365 22.758C206.175 24.1513 206.581 25.7346 206.581 27.508C206.581 27.7613 206.581 28.0526 206.581 28.382C206.581 28.686 206.555 29.0026 206.505 29.332H190.849V26.178H201.375C201.299 24.9873 200.855 24.0373 200.045 23.328C199.259 22.6186 198.271 22.264 197.081 22.264C196.194 22.264 195.383 22.4666 194.649 22.872C193.914 23.252 193.331 23.8473 192.901 24.658C192.47 25.4433 192.255 26.444 192.255 27.66V28.762C192.255 29.8006 192.457 30.7 192.863 31.46C193.268 32.1946 193.825 32.7646 194.535 33.17C195.269 33.5753 196.093 33.778 197.005 33.778C197.942 33.778 198.727 33.5753 199.361 33.17C199.994 32.7393 200.475 32.1946 200.805 31.536H206.049C205.669 32.7266 205.061 33.816 204.225 34.804C203.389 35.7666 202.363 36.5393 201.147 37.122C199.931 37.6793 198.563 37.958 197.043 37.958ZM209.224 37.502V10.788H214.354V37.502H209.224ZM220.869 45.178L225.239 35.374H224.175L216.461 18.654H222.009L227.481 30.89H227.595L232.497 18.654H237.969L226.341 45.178H220.869Z" fill="white"/>
<rect x="2.82812" y="3.16406" width="50.3443" height="43.6716" rx="12" fill="#4A3AFF" stroke="#4A3AFF" stroke-width="5" stroke-miterlimit="10" stroke-linecap="round" stroke-linejoin="round"/>
<path d="M55.6685 16.9995H35.4189C31.0007 16.9995 27.4189 20.5812 27.4189 24.9995C27.4189 29.4178 31.0007 32.9995 35.4189 32.9995H55.6685V16.9995Z" fill="#4CBFFF"/>
<circle cx="35.1504" cy="24.9995" r="4" fill="white"/>
</svg>
