<svg width="218" height="46" viewBox="0 0 218 46" fill="none" xmlns="http://www.w3.org/2000/svg">
<rect x="18.6855" y="36.7036" width="29.4123" height="8.99589" fill="#4A3AFF"/>
<circle cx="18.6853" cy="27.7278" r="17.9715" fill="#4A3AFF"/>
<circle cx="46.5872" cy="22.9998" r="22.6995" fill="#9E97FF"/>
<path d="M97.5751 35.956C94.9151 35.956 92.6098 35.386 90.6591 34.246C88.7338 33.0807 87.2518 31.472 86.2131 29.42C85.1744 27.3427 84.6551 24.9487 84.6551 22.238C84.6551 19.5273 85.1744 17.1333 86.2131 15.056C87.2771 12.9787 88.7718 11.3573 90.6971 10.192C92.6224 9.02667 94.9151 8.444 97.5751 8.444C100.818 8.444 103.465 9.242 105.517 10.838C107.594 12.434 108.886 14.6887 109.393 17.602H103.731C103.427 16.1833 102.743 15.0813 101.679 14.296C100.64 13.4853 99.2598 13.08 97.5371 13.08C95.9411 13.08 94.5604 13.46 93.3951 14.22C92.2551 14.9547 91.3811 16.006 90.7731 17.374C90.1904 18.742 89.8991 20.3633 89.8991 22.238C89.8991 24.1127 90.1904 25.734 90.7731 27.102C91.3811 28.4447 92.2551 29.4833 93.3951 30.218C94.5604 30.9527 95.9411 31.32 97.5371 31.32C99.2598 31.32 100.64 30.9527 101.679 30.218C102.743 29.4833 103.44 28.4447 103.769 27.102H109.393C108.886 29.8633 107.594 32.0293 105.517 33.6C103.465 35.1707 100.818 35.956 97.5751 35.956ZM112.534 35.5V8.786H117.664V35.5H112.534ZM130.26 35.956C128.436 35.956 126.789 35.538 125.32 34.702C123.851 33.866 122.685 32.7007 121.824 31.206C120.988 29.7113 120.57 28.0013 120.57 26.076C120.57 24.1253 121.001 22.4153 121.862 20.946C122.723 19.4513 123.889 18.286 125.358 17.45C126.827 16.614 128.461 16.196 130.26 16.196C132.084 16.196 133.731 16.614 135.2 17.45C136.669 18.286 137.822 19.4513 138.658 20.946C139.519 22.4153 139.95 24.1253 139.95 26.076C139.95 28.0267 139.519 29.7493 138.658 31.244C137.797 32.7133 136.631 33.866 135.162 34.702C133.718 35.538 132.084 35.956 130.26 35.956ZM130.222 31.624C131.058 31.624 131.805 31.4213 132.464 31.016C133.148 30.6107 133.693 30.0027 134.098 29.192C134.529 28.356 134.744 27.3173 134.744 26.076C134.744 24.8347 134.529 23.8087 134.098 22.998C133.693 22.162 133.148 21.5413 132.464 21.136C131.805 20.7307 131.083 20.528 130.298 20.528C129.487 20.528 128.74 20.7307 128.056 21.136C127.372 21.5413 126.827 22.162 126.422 22.998C126.017 23.8087 125.814 24.8347 125.814 26.076C125.814 27.3173 126.017 28.356 126.422 29.192C126.827 30.0027 127.359 30.6107 128.018 31.016C128.702 31.4213 129.437 31.624 130.222 31.624ZM149.807 35.956C148.262 35.956 146.932 35.6267 145.817 34.968C144.728 34.3093 143.892 33.334 143.309 32.042C142.752 30.7247 142.473 29.116 142.473 27.216V16.652H147.565V26.76C147.565 28.3307 147.882 29.534 148.515 30.37C149.149 31.206 150.162 31.624 151.555 31.624C152.417 31.624 153.177 31.4213 153.835 31.016C154.519 30.5853 155.051 29.9773 155.431 29.192C155.837 28.4067 156.039 27.4693 156.039 26.38V16.652H161.169V35.5H156.761L156.343 32.46H156.191C155.609 33.5493 154.785 34.4107 153.721 35.044C152.683 35.652 151.378 35.956 149.807 35.956ZM172.769 35.956C170.995 35.956 169.437 35.538 168.095 34.702C166.752 33.8407 165.713 32.6627 164.979 31.168C164.244 29.6733 163.877 27.976 163.877 26.076C163.877 24.176 164.244 22.4787 164.979 20.984C165.713 19.4893 166.765 18.324 168.133 17.488C169.501 16.6267 171.097 16.196 172.921 16.196C174.365 16.196 175.619 16.4747 176.683 17.032C177.772 17.5893 178.633 18.286 179.267 19.122V8.786H184.397V35.5H180.065L179.723 32.27H179.609C179.153 33.03 178.583 33.6887 177.899 34.246C177.24 34.778 176.48 35.196 175.619 35.5C174.783 35.804 173.833 35.956 172.769 35.956ZM174.213 31.7C175.251 31.7 176.151 31.4593 176.911 30.978C177.696 30.4967 178.304 29.838 178.735 29.002C179.165 28.1407 179.381 27.1527 179.381 26.038C179.381 24.9487 179.165 23.986 178.735 23.15C178.304 22.2887 177.696 21.6173 176.911 21.136C176.151 20.6547 175.251 20.414 174.213 20.414C173.199 20.414 172.3 20.6547 171.515 21.136C170.729 21.6173 170.121 22.2887 169.691 23.15C169.285 23.986 169.083 24.9487 169.083 26.038C169.083 27.1527 169.285 28.1407 169.691 29.002C170.121 29.838 170.729 30.4967 171.515 30.978C172.3 31.4593 173.199 31.7 174.213 31.7ZM188.163 35.5V8.786H193.293V35.5H188.163ZM199.809 43.176L204.179 33.372H203.115L195.401 16.652H200.949L206.421 28.888H206.535L211.437 16.652H216.909L205.281 43.176H199.809Z" fill="white"/>
</svg>
