<svg width="222" height="58" viewBox="0 0 222 58" fill="none" xmlns="http://www.w3.org/2000/svg">
<path d="M0.386719 18.0605C0.386719 17.357 0.760031 16.7065 1.36733 16.3515L24.877 2.61162C26.1965 1.84042 27.8551 2.79215 27.8551 4.32053V25.0251L14.2668 16.9247V57.1294H2.36609C1.27291 57.1294 0.386719 56.2432 0.386719 55.15V18.0605Z" fill="#4A3AFF"/>
<path d="M27.8555 25.0508L40.6691 32.9129C41.2558 33.2728 41.6133 33.9117 41.6133 34.6V55.1506C41.6133 56.2438 40.7271 57.13 39.6339 57.13H29.8348C28.7417 57.13 27.8555 56.2438 27.8555 55.1506V25.0508Z" fill="#9E97FF"/>
<path d="M58.8793 46.9082L67.4673 20.3082H75.5613L84.1113 46.9082H78.6773L71.5713 23.6522H71.4573L64.2373 46.9082H58.8793ZM63.1733 39.4602L64.5413 35.4702H78.0693L79.3993 39.4602H63.1733ZM86.0012 46.9082V28.0602H90.4092L90.8272 32.1262H90.9792C91.5365 30.8595 92.1445 29.9095 92.8032 29.2762C93.4619 28.6175 94.2092 28.1742 95.0452 27.9462C95.9065 27.7182 96.8692 27.6042 97.9332 27.6042V33.0382H96.5652C95.7039 33.0382 94.9312 33.1395 94.2472 33.3422C93.5632 33.5195 92.9932 33.8235 92.5372 34.2542C92.0812 34.6595 91.7265 35.2042 91.4732 35.8882C91.2452 36.5722 91.1312 37.3955 91.1312 38.3582V46.9082H86.0012ZM108.894 47.3642C106.893 47.3642 105.145 46.9462 103.65 46.1102C102.181 45.2489 101.028 44.0835 100.192 42.6142C99.3814 41.1195 98.9761 39.4095 98.9761 37.4842C98.9761 35.5589 99.3941 33.8615 100.23 32.3922C101.091 30.8975 102.257 29.7322 103.726 28.8962C105.221 28.0349 106.943 27.6042 108.894 27.6042C111.326 27.6042 113.378 28.2375 115.05 29.5042C116.722 30.7709 117.773 32.5189 118.204 34.7482H112.77C112.567 33.8362 112.099 33.1395 111.364 32.6582C110.655 32.1515 109.819 31.8982 108.856 31.8982C107.969 31.8982 107.171 32.1262 106.462 32.5822C105.778 33.0129 105.233 33.6462 104.828 34.4822C104.423 35.3182 104.22 36.3189 104.22 37.4842C104.22 38.3455 104.334 39.1182 104.562 39.8022C104.79 40.4609 105.107 41.0435 105.512 41.5502C105.943 42.0315 106.437 42.3989 106.994 42.6522C107.551 42.8802 108.172 42.9942 108.856 42.9942C109.515 42.9942 110.11 42.8929 110.642 42.6902C111.174 42.4622 111.63 42.1455 112.01 41.7402C112.39 41.3095 112.643 40.8029 112.77 40.2202H118.204C117.773 42.3989 116.722 44.1342 115.05 45.4262C113.378 46.7182 111.326 47.3642 108.894 47.3642ZM121.036 46.9082V20.1942H126.09V31.1762H126.242C126.901 30.0109 127.762 29.1242 128.826 28.5162C129.89 27.9082 131.144 27.6042 132.588 27.6042C134.108 27.6042 135.4 27.9462 136.464 28.6302C137.528 29.2889 138.339 30.2642 138.896 31.5562C139.453 32.8482 139.732 34.4442 139.732 36.3442V46.9082H134.64V36.8002C134.64 35.2295 134.323 34.0262 133.69 33.1902C133.082 32.3542 132.094 31.9362 130.726 31.9362C129.865 31.9362 129.079 32.1515 128.37 32.5822C127.686 32.9875 127.141 33.5829 126.736 34.3682C126.356 35.1282 126.166 36.0655 126.166 37.1802V46.9082H121.036ZM143.348 46.9082V28.0602H148.478V46.9082H143.348ZM145.932 25.6282C144.994 25.6282 144.234 25.3495 143.652 24.7922C143.069 24.2349 142.778 23.5509 142.778 22.7402C142.778 21.9042 143.069 21.2075 143.652 20.6502C144.234 20.0929 144.994 19.8142 145.932 19.8142C146.869 19.8142 147.629 20.0929 148.212 20.6502C148.82 21.2075 149.124 21.9042 149.124 22.7402C149.124 23.5509 148.82 24.2349 148.212 24.7922C147.629 25.3495 146.869 25.6282 145.932 25.6282ZM160.904 46.9082C159.561 46.9082 158.383 46.7055 157.37 46.3002C156.382 45.8695 155.609 45.1729 155.052 44.2102C154.494 43.2222 154.216 41.8795 154.216 40.1822V32.2022H150.986V28.0602H154.216L154.786 22.9302H159.346V28.0602H164.362V32.2022H159.346V40.2582C159.346 41.1449 159.536 41.7655 159.916 42.1202C160.296 42.4749 160.942 42.6522 161.854 42.6522H164.248V46.9082H160.904ZM175.17 47.3642C173.244 47.3642 171.534 46.9589 170.04 46.1482C168.57 45.3375 167.418 44.1975 166.582 42.7282C165.746 41.2589 165.328 39.5742 165.328 37.6742C165.328 35.6982 165.733 33.9629 166.544 32.4682C167.38 30.9482 168.532 29.7575 170.002 28.8962C171.496 28.0349 173.232 27.6042 175.208 27.6042C177.082 27.6042 178.729 28.0095 180.148 28.8202C181.566 29.6309 182.681 30.7455 183.492 32.1642C184.302 33.5575 184.708 35.1409 184.708 36.9142C184.708 37.1675 184.708 37.4589 184.708 37.7882C184.708 38.0922 184.682 38.4089 184.632 38.7382H168.976V35.5842H179.502C179.426 34.3935 178.982 33.4435 178.172 32.7342C177.386 32.0249 176.398 31.6702 175.208 31.6702C174.321 31.6702 173.51 31.8729 172.776 32.2782C172.041 32.6582 171.458 33.2535 171.028 34.0642C170.597 34.8495 170.382 35.8502 170.382 37.0662V38.1682C170.382 39.2069 170.584 40.1062 170.99 40.8662C171.395 41.6009 171.952 42.1709 172.662 42.5762C173.396 42.9815 174.22 43.1842 175.132 43.1842C176.069 43.1842 176.854 42.9815 177.488 42.5762C178.121 42.1455 178.602 41.6009 178.932 40.9422H184.176C183.796 42.1329 183.188 43.2222 182.352 44.2102C181.516 45.1729 180.49 45.9455 179.274 46.5282C178.058 47.0855 176.69 47.3642 175.17 47.3642ZM196.546 47.3642C194.545 47.3642 192.797 46.9462 191.302 46.1102C189.833 45.2489 188.68 44.0835 187.844 42.6142C187.034 41.1195 186.628 39.4095 186.628 37.4842C186.628 35.5589 187.046 33.8615 187.882 32.3922C188.744 30.8975 189.909 29.7322 191.378 28.8962C192.873 28.0349 194.596 27.6042 196.546 27.6042C198.978 27.6042 201.03 28.2375 202.702 29.5042C204.374 30.7709 205.426 32.5189 205.856 34.7482H200.422C200.22 33.8362 199.751 33.1395 199.016 32.6582C198.307 32.1515 197.471 31.8982 196.508 31.8982C195.622 31.8982 194.824 32.1262 194.114 32.5822C193.43 33.0129 192.886 33.6462 192.48 34.4822C192.075 35.3182 191.872 36.3189 191.872 37.4842C191.872 38.3455 191.986 39.1182 192.214 39.8022C192.442 40.4609 192.759 41.0435 193.164 41.5502C193.595 42.0315 194.089 42.3989 194.646 42.6522C195.204 42.8802 195.824 42.9942 196.508 42.9942C197.167 42.9942 197.762 42.8929 198.294 42.6902C198.826 42.4622 199.282 42.1455 199.662 41.7402C200.042 41.3095 200.296 40.8029 200.422 40.2202H205.856C205.426 42.3989 204.374 44.1342 202.702 45.4262C201.03 46.7182 198.978 47.3642 196.546 47.3642ZM217.124 46.9082C215.782 46.9082 214.604 46.7055 213.59 46.3002C212.602 45.8695 211.83 45.1729 211.272 44.2102C210.715 43.2222 210.436 41.8795 210.436 40.1822V32.2022H207.206V28.0602H210.436L211.006 22.9302H215.566V28.0602H220.582V32.2022H215.566V40.2582C215.566 41.1449 215.756 41.7655 216.136 42.1202C216.516 42.4749 217.162 42.6522 218.074 42.6522H220.468V46.9082H217.124Z" fill="white"/>
</svg>
